<?xml version="1.0" standalone="no"?>
<!DOCTYPE svg PUBLIC "-//W3C//DTD SVG 1.1//EN" "http://www.w3.org/Graphics/SVG/1.1/DTD/svg11.dtd" >
<!--
2013-9-30: Created.
-->
<svg>
<metadata>
Created by iconfont
</metadata>
<defs>

<font id="bm-icon" horiz-adv-x="1024" >
  <font-face
    font-family="bm-icon"
    font-weight="500"
    font-stretch="normal"
    units-per-em="1024"
    ascent="896"
    descent="-128"
  />
    <missing-glyph />
    
    <glyph glyph-name="shaixuan" unicode="&#59277;" d="M512 896a512 512 0 1 1 512-512 512.597333 512.597333 0 0 1-512 512z m-45.056-727.637333a37.888 37.888 0 1 0-75.861333 0V433.92l-62.464-62.549333a37.888 37.888 0 0 0-53.674667 53.674666l119.893333 119.893334a42.154667 42.154667 0 0 0 72.106667-31.658667v-344.917333zM745.472 354.986667L625.664 235.093333a42.069333 42.069333 0 0 0-54.101333-4.778666 43.52 43.52 0 0 0-18.005334 36.010666V611.584a37.888 37.888 0 1 0 75.861334 0v-265.472l62.464 62.464a37.888 37.888 0 0 0 53.589333-53.589333z"  horiz-adv-x="1024" />

    
    <glyph glyph-name="kuang" unicode="&#59267;" d="M512 896c282.784 0 512-229.216 512-512s-229.216-512-512-512S0 101.216 0 384 229.216 896 512 896z m0-32C246.912 864 32 649.088 32 384c0-265.088 214.912-480 480-480 265.088 0 480 214.912 480 480 0 265.088-214.912 480-480 480z"  horiz-adv-x="1024" />

    
    <glyph glyph-name="shanxing" unicode="&#59268;" d="M29.103158 896A809.337263 809.337263 0 0 1 0 680.421053c0-446.464 361.957053-808.421053 808.421053-808.421053 74.644211 0 146.917053 10.132211 215.578947 29.103158V734.315789a161.684211 161.684211 0 0 1-161.684211 161.684211H29.103158z"  horiz-adv-x="1024" />

    
    <glyph glyph-name="xiangji" unicode="&#59264;" d="M854.618353 611.147294c12.950588 0 25.419294-5.421176 34.575059-15.239529a53.609412 53.609412 0 0 0 14.336-36.74353v-454.415059c0-28.732235-21.925647-52.043294-48.971294-52.043294H169.441882C142.396235 52.705882 120.470588 76.016941 120.470588 104.749176V559.104c0 28.792471 21.925647 52.043294 48.971294 52.043294h122.277647l18.672942 78.667294A33.731765 33.731765 0 0 0 340.630588 715.294118h342.618353c14.275765-0.602353 26.503529-10.902588 30.358588-25.47953l18.552471-78.667294h122.337882zM847.510588 531.576471a26.624 26.624 0 0 1-7.047529 18.130823 23.190588 23.190588 0 0 1-16.865883 7.529412h-132.879058l-25.359059 102.821647H358.520471l-25.359059-102.821647H200.342588a23.190588 23.190588 0 0 1-16.926117-7.529412 26.684235 26.684235 0 0 1-6.987295-18.130823v-397.974589c0-14.155294 10.721882-25.660235 23.913412-25.660235h623.314824c13.251765 0 23.913412 11.444706 23.913412 25.660235V531.576471z m-84.208941-9.517177a28.310588 28.310588 0 0 0 27.949177-27.648 26.864941 26.864941 0 0 0-8.011295-19.696941 27.587765 27.587765 0 0 0-19.937882-7.890824h-55.958588a28.310588 28.310588 0 0 0-27.949177 27.587765 26.864941 26.864941 0 0 0 8.011294 19.696941 27.587765 27.587765 0 0 0 19.937883 7.951059h55.958588z m-251.482353-27.648c77.221647 0 139.806118-61.801412 139.806118-137.999059 0-76.257882-62.644706-138.059294-139.806118-138.059294-77.221647 0-139.866353 61.801412-139.866353 138.059294 0 76.197647 62.644706 137.999059 139.866353 137.999059z m0-220.822588c46.320941 0 83.907765 37.044706 83.907765 82.823529s-37.586824 82.823529-83.907765 82.82353c-46.381176 0-83.907765-37.104941-83.907765-82.82353 0-45.778824 37.526588-82.823529 83.907765-82.823529z"  horiz-adv-x="1024" />

    
    <glyph glyph-name="tianjia" unicode="&#59265;" d="M512 844.8a460.8 460.8 0 1 0-0.0512-921.6512A460.8 460.8 0 0 0 512 844.8z m0-843.4176A382.6688 382.6688 0 0 1 894.6176 384 382.6688 382.6688 0 0 1 512 766.6176 382.6688 382.6688 0 0 1 129.3824 384 382.6688 382.6688 0 0 1 512 1.3824zM512 640c17.664 0 32-14.336 32-32v-192h192a32 32 0 1 0 0-64h-192v-192a32 32 0 1 0-64 0v192h-192a32 32 0 1 0 0 64h192v192c0 17.664 14.336 32 32 32z"  horiz-adv-x="1024" />

    
    <glyph glyph-name="guanbi" unicode="&#59266;" d="M210.346667 685.738667a42.666667 42.666667 0 0 1 0-60.416L451.669333 384 210.346667 142.677333a42.666667 42.666667 0 0 1 60.330666-60.416L512 323.669333 753.493333 82.261333a42.666667 42.666667 0 0 1 60.330667 60.416L572.330667 384l241.408 241.322667a42.666667 42.666667 0 0 1-60.330667 60.416L512 444.330667 270.677333 685.738667a42.666667 42.666667 0 0 1-60.330666 0z"  horiz-adv-x="1109" />

    
    <glyph glyph-name="yingjiyuan1" unicode="&#59254;" d="M813.6704 292.6592a210.3296 210.3296 0 1 0 0-420.6592 210.3296 210.3296 0 0 0 0 420.6592zM796.16 844.8a148.992 148.992 0 0 0 148.992-148.992v-385.7408a262.912 262.912 0 0 1-359.2192-359.2192H200.192A148.992 148.992 0 0 0 51.2 99.84V695.808A148.992 148.992 0 0 0 200.192 844.8h595.968z m-5.4272-645.6832l-103.1168-160.1024c-12.6464-19.5584-2.304-35.5328 22.8864-35.5328h206.336c25.1904 0 35.5328 15.9744 22.9376 35.5328L836.608 199.168c-12.5952 19.5584-33.28 19.5584-45.8752 0z m22.9376-136.4992c5.888 0 11.0592-2.2016 15.36-6.5024a21.1968 21.1968 0 0 0 6.3488-15.4624 20.48 20.48 0 0 0-6.4-15.36 21.0944 21.0944 0 0 0-11.264-5.9392 75.2128 75.2128 0 0 0-8.0896 0 21.1968 21.1968 0 0 0-11.264 5.9392 20.736 20.736 0 0 0-6.4512 15.36c0 5.9392 2.1504 11.1104 6.4 15.4624a20.8896 20.8896 0 0 0 15.36 6.5024z m0 114.3808a20.48 20.48 0 0 0 15.6672-6.656c4.096-4.4032 6.144-9.8816 6.144-16.5376 0-5.6832-8.5504-47.616-11.4176-78.08h-20.4288c-2.4576 30.464-11.6736 72.3968-11.6736 78.08 0 6.5536 2.048 12.032 6.0928 16.4864a20.2752 20.2752 0 0 0 15.616 6.656zM399.0016 270.848H215.6032a35.9424 35.9424 0 1 1 0-71.7824h183.3984a35.9424 35.9424 0 1 1 0 71.7824z m0 191.3344H215.6032a35.9424 35.9424 0 1 1 0-71.8336h183.3984a35.9424 35.9424 0 0 1 4.9152 71.68l-4.9152 0.1536z m127.488 191.2832H215.552a35.84 35.84 0 0 1 0-71.68h311.0912a35.84 35.84 0 0 1 5.3248 71.2704l-5.4784 0.4096z"  horiz-adv-x="1024" />

    
    <glyph glyph-name="niandu" unicode="&#59240;" d="M813.6704 292.6592a210.3296 210.3296 0 1 0 0-420.6592 210.3296 210.3296 0 0 0 0 420.6592zM796.16 844.8a148.992 148.992 0 0 0 148.992-148.992v-385.7408a262.912 262.912 0 0 1-359.2192-359.2192H200.192A148.992 148.992 0 0 0 51.2 99.84V695.808A148.992 148.992 0 0 0 200.192 844.8h595.968z m-4.2496-648.5504h-54.4768l-37.6832-75.3664h53.4016l14.6432 28.2624h32.4608v-36.6592h-79.5648v-70.144h-18.8416v-26.2144h98.4064v-50.2784h49.2544v51.3536h80.64v26.1632h-80.64v42.9568h68.096v26.1632h-68.096v36.6592h73.2672v26.1632h-141.312l10.4448 20.992z m8.3456-109.9264v-42.9568h-31.3856v42.9568h31.3856zM502.1696 691.2H230.4C216.2688 691.2 204.8 680.9088 204.8 668.16v-368.64c0-12.7488 11.4688-23.04 25.6-23.04h318.8736a65.024 65.024 0 0 1 64.5632 65.4848V483.84a21.6576 21.6576 0 0 1-21.504 21.8112c-11.8784 0-21.504-9.728-21.504-21.8112v-141.8752a21.6576 21.6576 0 0 0-21.5552-21.8112 21.6576 21.6576 0 0 0-21.504 21.8112l-0.0512 167.4752-6.7584-1.1776-29.3376-2.816a4.9664 4.9664 0 0 0-4.096 1.4848 5.12 5.12 0 0 0-1.4336 4.096l2.7648 29.7984a51.2 51.2 0 0 0 14.3872 31.0272l24.4736 24.7808V668.16c0 12.7488-11.4176 23.04-25.5488 23.04z m-130.56-261.9392c8.96 0 16.1792-7.3216 16.1792-16.384 0-9.0112-7.2192-16.384-16.128-16.384H285.5424a16.2816 16.2816 0 0 0-16.1792 16.384c0 9.0624 7.2704 16.384 16.1792 16.384z m75.4176 65.536c8.9088 0 16.128-7.3728 16.128-16.384 0-9.0624-7.2192-16.384-16.128-16.384H285.5424a16.2816 16.2816 0 0 0-16.1792 16.384c0 9.0112 7.2704 16.384 16.1792 16.384z m212.2752 161.3824a25.3952 25.3952 0 0 1-35.9936 3.7888l-106.496-87.4496-3.84-3.584a38.4512 38.4512 0 0 1-9.3696-18.432l-4.4032-22.016v-1.6384l0.7168-1.536a3.7376 3.7376 0 0 1 2.9696-1.3824l22.1184-0.256 5.12 0.3584a37.4784 37.4784 0 0 1 18.7904 8.192l106.5472 87.4496 3.328 3.2768a26.2656 26.2656 0 0 1 0.512 33.28z m-217.7024-30.464c11.9296 0 21.504-9.728 21.504-21.8112v-43.6736a21.6576 21.6576 0 0 0-21.504-21.8112H290.9184a21.6576 21.6576 0 0 0-21.504 21.8112v43.6736c0 12.032 9.6256 21.8112 21.504 21.8112z m194.9184 18.5856a5.6832 5.6832 0 0 0 5.9392-1.9456 5.888 5.888 0 0 0-0.7168-8.0896l-14.6944-11.9808-1.28-0.8192a5.376 5.376 0 0 0-2.9184-0.4608 5.632 5.632 0 0 0-3.8912 2.1504 5.9392 5.9392 0 0 0 0.8704 8.192l14.6944 11.9808z"  horiz-adv-x="1024" />

    
    <glyph glyph-name="teshushebei" unicode="&#59241;" d="M813.6704 292.6592a210.3296 210.3296 0 1 0 0-420.6592 210.3296 210.3296 0 0 0 0 420.6592zM796.16 844.8a148.992 148.992 0 0 0 148.992-148.992v-385.7408a261.7344 261.7344 0 0 1-131.4816 35.1744c-43.7248 0-84.8896-10.6496-121.1904-29.4912V412.16a28.8768 28.8768 0 0 1-28.7744 28.8256H485.1712v79.36a23.04 23.04 0 1 1-46.08 0v-79.36H260.4544a28.8256 28.8256 0 0 1-28.7744-28.8256v-129.0752c0-15.9232 12.9024-28.8768 28.7744-28.8768l354.2528 0.0512a261.888 261.888 0 0 1-64-171.9296c0-47.872 12.8-92.8256 35.1744-131.4816H200.192A148.992 148.992 0 0 0 51.2 99.84V695.808A148.992 148.992 0 0 0 200.192 844.8h595.968z m32.6656-844.2368h-92.9792l-3.9424-0.256a18.2272 18.2272 0 0 1 0-35.84l3.9424-0.3072h92.9792l3.9424 0.256a18.2272 18.2272 0 0 1-3.9424 36.1472z m0 97.024h-92.9792l-3.9424-0.256a18.2272 18.2272 0 0 1 0-35.8912l3.9424-0.256h92.9792l3.9424 0.256a18.2272 18.2272 0 0 1 1.8944 35.4304l-3.3792 0.6144-2.4576 0.1024zM893.44 194.56H735.744l-3.6352-0.3584a18.176 18.176 0 0 1 0-35.6352l3.6352-0.3584h157.696l3.84 0.4096a18.176 18.176 0 0 1 2.816 34.6624l-3.9424 1.0752-2.7648 0.2048zM311.552 368.9472a23.04 23.04 0 1 0-17.664-42.6496 23.04 23.04 0 0 0 17.664 42.6496z m69.8368 0a23.04 23.04 0 1 0-17.7152-42.6496 23.04 23.04 0 0 0 17.7152 42.6496z m80.0256 275.4048a100.864 100.864 0 0 1-100.864-100.9664 23.0912 23.0912 0 0 1 46.08 0 54.784 54.784 0 1 0 109.4656 0 23.04 23.04 0 1 1 46.08 0 100.864 100.864 0 0 1-100.7616 100.9664z m0 70.656a171.52 171.52 0 0 1-171.3664-171.6224 23.04 23.04 0 0 1 46.08 0 125.3888 125.3888 0 0 0 125.2864 125.44 125.3888 125.3888 0 0 0 125.2352-125.44 23.04 23.04 0 1 1 46.08 0 171.52 171.52 0 0 1-171.3664 171.6224z"  horiz-adv-x="1024" />

    
    <glyph glyph-name="weibaoxinxi" unicode="&#59242;" d="M813.6704 292.6592a210.3296 210.3296 0 1 0 0-420.6592 210.3296 210.3296 0 0 0 0 420.6592zM796.16 844.8a148.992 148.992 0 0 0 148.992-148.992v-385.7408a262.912 262.912 0 0 1-359.2192-359.2192H200.192A148.992 148.992 0 0 0 51.2 99.84V695.808A148.992 148.992 0 0 0 200.192 844.8h595.968z m32.6656-844.2368h-92.9792l-3.9424-0.256a18.2272 18.2272 0 0 1 0-35.84l3.9424-0.3072h92.9792l3.9424 0.256a18.2272 18.2272 0 0 1-3.9424 36.1472z m0 97.024h-92.9792l-3.9424-0.256a18.2272 18.2272 0 0 1 0-35.8912l3.9424-0.256h92.9792l3.9424 0.256a18.2272 18.2272 0 0 1 1.8944 35.4304l-3.3792 0.6144-2.4576 0.1024zM893.44 194.56H735.744l-3.6352-0.3584a18.176 18.176 0 0 1 0-35.6352l3.6352-0.3584h157.696l3.84 0.4096a18.176 18.176 0 0 1 2.816 34.6624l-3.9424 1.0752-2.7648 0.2048zM435.2 742.4a30.208 30.208 0 0 1-8.96-1.2288l-212.48-68.3008A14.1312 14.1312 0 0 1 204.8 660.3776v-296.96c0-5.2736 3.3792-12.0832 7.4752-15.36l215.4496-146.432a12.288 12.288 0 0 1 7.424-2.4064 12.1856 12.1856 0 0 1 7.4752 2.4064l215.552 146.432a22.1184 22.1184 0 0 1 7.424 15.36V660.2752a14.1824 14.1824 0 0 1-8.9088 12.544L444.0576 741.1712A28.3136 28.3136 0 0 1 435.2 742.4z m100.0448-95.5392a4.9152 4.9152 0 0 0 1.024-7.7824L470.016 572.8256l26.112-26.112 66.2528 66.304a4.9664 4.9664 0 0 0 6.9632 0c0.3072-0.3072 0.6144-0.6144 0.768-1.024a98.6112 98.6112 0 0 0-110.592-145.2544l-112.5888-112.5376a2.9696 2.9696 0 0 0-4.1984 0.1536L277.4528 419.584c-1.2288 1.2288-1.3312 3.072-0.1536 4.2496l112.6912 112.64a98.4064 98.4064 0 0 0 25.6 95.0784 98.4576 98.4576 0 0 0 119.6544 15.3088z"  horiz-adv-x="1024" />

    
    <glyph glyph-name="xiaofangsheshi" unicode="&#59243;" d="M813.6704 292.6592a210.3296 210.3296 0 1 0 0-420.6592 210.3296 210.3296 0 0 0 0 420.6592zM796.16 844.8a148.992 148.992 0 0 0 148.992-148.992v-385.7408a261.7344 261.7344 0 0 1-131.4816 35.1744 262.144 262.144 0 0 1-190.1056-81.3056 29.184 29.184 0 0 1-16.64 5.2736H515.072v142.848h32.9216c3.4816 0 5.2224 1.7408 5.2224 5.2224V561.8176c0 3.4816-1.7408 5.2736-5.2224 5.2736h-32.9216v33.0752c0 3.4304-1.6896 5.2224-5.1712 5.2224H326.144c-3.4816 1.7408-5.1712-1.792-5.1712-5.2224v-33.0752h-32.9216c-3.4816 1.7408-6.9632-1.792-6.9632-5.2736v-146.2784c0-3.4816 1.7408-5.2736 5.2224-5.2736h32.9216v-141.056H248.1664a31.1296 31.1296 0 0 1-31.232-31.3344c0-17.408 13.9264-33.0752 31.232-33.0752h332.8a261.7856 261.7856 0 0 1-30.208-122.4704c0-47.872 12.8-92.8256 35.1744-131.4816H200.192A148.992 148.992 0 0 0 51.2 99.84V695.808A148.992 148.992 0 0 0 200.192 844.8h595.968z m32.6656-844.2368h-92.9792l-3.9424-0.256a18.2272 18.2272 0 0 1 0-35.84l3.9424-0.3072h92.9792l3.9424 0.256a18.2272 18.2272 0 0 1-3.9424 36.1472z m0 97.024h-92.9792l-3.9424-0.256a18.2272 18.2272 0 0 1 0-35.8912l3.9424-0.256h92.9792l3.9424 0.256a18.2272 18.2272 0 0 1 1.8944 35.4304l-3.3792 0.6144-2.4576 0.1024zM893.44 194.56H735.744l-3.6352-0.3584a18.176 18.176 0 0 1 0-35.6352l3.6352-0.3584h157.696l3.84 0.4096a18.176 18.176 0 0 1 2.816 34.6624l-3.9424 1.0752-2.7648 0.2048zM260.352 549.632c-31.232 0-55.4496-24.4224-55.4496-59.2384-1.792-33.0752 24.2176-57.4976 55.4496-57.4976 5.1712 0 5.1712 3.4816 5.1712 8.704V542.72c0 3.4816-1.6896 6.9632-5.1712 6.9632z m318.8736 0c-3.4816 0-10.3936 0-10.3936-5.2224v-106.24c1.6896-5.2736 6.912-5.2736 12.0832-5.2736 32.9216 0 58.88 26.112 58.88 59.2384 0 33.0752-27.648 57.4976-60.5696 57.4976z m-164.6592-8.704c26.0096 0 46.7968-20.8896 46.7968-47.0016a46.7456 46.7456 0 1 0-93.5424 0c0 26.112 20.7872 47.0528 46.7456 47.0528zM416.3072 716.8c-50.2784 0-90.112-38.2976-93.6448-87.04 0-3.4816 3.4816-6.9632 6.9632-6.9632h173.312c3.4816 0 6.9632 3.4816 6.9632 10.3936A94.0544 94.0544 0 0 1 416.256 716.8z"  horiz-adv-x="1024" />

    
    <glyph glyph-name="biaozhunku" unicode="&#59244;" d="M813.824 292.6592A210.2272 210.2272 0 0 0 1024 82.3296 210.2272 210.2272 0 0 0 813.824-128a210.2272 210.2272 0 0 0-210.1248 210.3296 210.2272 210.2272 0 0 0 210.1248 210.3296zM795.4944 844.8a148.9408 148.9408 0 0 0 148.8896-148.992v-385.7408a262.8096 262.8096 0 0 1-394.0864-227.7376c0-47.872 12.8-92.8256 35.1744-131.4816H200.0384A148.9408 148.9408 0 0 0 51.2 99.84V695.808A148.9408 148.9408 0 0 0 200.0384 844.8h595.456z m145.1008-815.872h-244.0704a5.8368 5.8368 0 0 1-5.888-5.8368v-58.112c0-3.2256 2.6112-5.8368 5.888-5.8368h244.0704a5.8368 5.8368 0 0 1 5.8368 5.8368v58.112a5.8368 5.8368 0 0 1-5.8368 5.8368z m-120.9856-22.1184c3.2256 0 5.8368-2.56 5.8368-5.8368v-13.8752a5.8368 5.8368 0 0 0-5.8368-5.888h-13.9264a5.8368 5.8368 0 0 0-5.8368 5.888v13.8752c0 3.2256 2.6112 5.8368 5.8368 5.8368h13.9264z m95.4368 0c3.2256 0 5.8368-2.56 5.8368-5.8368v-13.8752a5.8368 5.8368 0 0 0-5.8368-5.888h-58.112a5.8368 5.8368 0 0 0-5.888 5.888v13.8752c0 3.2256 2.6112 5.8368 5.888 5.8368h58.112z m25.5488 115.3536h-244.0704a5.8368 5.8368 0 0 1-5.888-5.8368v-58.0608c0-3.2256 2.6112-5.8368 5.888-5.8368h244.0704a5.8368 5.8368 0 0 1 5.8368 5.8368v58.0608a5.8368 5.8368 0 0 1-5.8368 5.8368z m-120.9856-22.0672c3.2256 0 5.8368-2.6112 5.8368-5.8368v-13.9264a5.8368 5.8368 0 0 0-5.8368-5.8368h-13.9264a5.8368 5.8368 0 0 0-5.8368 5.8368v13.9264c0 3.2256 2.6112 5.8368 5.8368 5.8368h13.9264z m95.4368 0c3.2256 0 5.8368-2.6112 5.8368-5.8368v-13.9264a5.8368 5.8368 0 0 0-5.8368-5.8368h-58.112a5.8368 5.8368 0 0 0-5.888 5.8368v13.9264c0 3.2256 2.6112 5.8368 5.888 5.8368h58.112z m25.5488 114.944h-244.0704a5.8368 5.8368 0 0 1-5.888-5.8368v-58.0608c0-3.2768 2.6112-5.888 5.888-5.888h244.0704a5.8368 5.8368 0 0 1 5.8368 5.888v58.0608a5.8368 5.8368 0 0 1-5.8368 5.8368z m-120.9856-22.0672c3.2256 0 5.8368-2.6112 5.8368-5.8368v-13.9264a5.8368 5.8368 0 0 0-5.8368-5.8368h-13.9264a5.8368 5.8368 0 0 0-5.8368 5.8368v13.9264c0 3.2256 2.6112 5.8368 5.8368 5.8368h13.9264z m95.4368 0c3.2256 0 5.8368-2.6112 5.8368-5.8368v-13.9264a5.8368 5.8368 0 0 0-5.8368-5.8368h-58.112a5.8368 5.8368 0 0 0-5.888 5.8368v13.9264c0 3.2256 2.6112 5.8368 5.888 5.8368h58.112zM257.28 388.9152l-51.4048-91.1872c-1.7408-3.584 0-7.1168 1.7408-10.6496 1.792-3.5328 7.0144-5.2736 10.5472-3.5328l63.1808 17.7152 17.5616-63.744c1.7408-3.584 5.2736-7.1168 10.5472-7.1168l3.1744 0.4608a13.312 13.312 0 0 1 5.632 3.072L373.76 338.1248a210.8416 210.8416 0 0 0-116.5312 50.7904zM542.72 396.288a213.248 213.248 0 0 0-112.896-56.576l58.6752-104.0384c1.6384-3.328 5.0688-5.376 8.7552-5.3248 5.2736 0 8.8064 3.584 7.0656 8.8576l17.5104 63.7952 63.232-17.7152c3.4816-1.792 8.7552 0 10.496 3.5328 3.5328 1.7408 3.5328 7.0656 1.7408 10.5984zM395.6736 742.4c-104.96 0-190.976-86.528-190.976-192 0-105.5744 86.016-192.1024 190.976-192.1024 106.7008 0 192.768 88.2688 192.768 193.792S500.6336 742.4 395.6736 742.4z m-8.8576-102.0928a10.8032 10.8032 0 0 0 19.456 0l25.1904-48.4864 52.4288-10.1376c3.8912 0 7.7824-4.0448 7.7824-8.0896 1.9456-4.0448 0-8.0896-1.9456-12.0832l-36.864-40.448 5.7856-54.5792a15.7696 15.7696 0 0 0-3.8912-10.1376c-3.84-2.048-7.7312-2.048-11.6224-2.048l-48.5376 24.32-48.5376-24.2688h-1.9456c-1.9456 0-3.8912 0-5.8368 2.048-3.8912 1.9968-5.7856 6.0416-3.8912 10.0864l5.8368 54.5792-36.864 40.448c-1.9456 3.9936-3.8912 8.0384-1.9456 12.0832a15.616 15.616 0 0 0 7.7312 8.0896l52.4288 10.1376z"  horiz-adv-x="1024" />

    
    <glyph glyph-name="jianglitibao" unicode="&#59245;" d="M816.0256 287.9488a207.9744 207.9744 0 1 0 0-415.9488 207.9744 207.9744 0 0 0 0 415.9488z m-38.0416-292.864c-3.072 0.8704-5.632-0.9216-5.632-4.1984v-43.1104c0-4.0448 4.864-6.144 8.8064-1.024l26.2656 34.048c1.792 2.4576 1.1264 5.7856-2.56 6.912zM787.712 844.8a147.3024 147.3024 0 0 0 147.3536-147.3024v-381.44a259.9424 259.9424 0 0 1-355.1744-355.1744l-381.3888 0.0512A147.3024 147.3024 0 0 0 51.2 108.2368V697.4976A147.3024 147.3024 0 0 0 198.5024 844.8h589.2608z m164.096-657.2032c2.1504 7.3216-2.816 11.6736-10.8544 7.7824 0 0-277.9136-127.6928-285.696-131.328-7.7824-3.584-10.496-12.4928 1.3312-15.9744 11.8784-3.4816 84.48-24.2688 84.48-24.2688 2.4576-0.6656 4.9664-0.6656 7.2704 1.1776l133.632 107.6736-97.8944-109.6192c-4.2496-4.608-2.4576-10.5472 3.072-12.1856l97.6896-28.672c5.2736-1.536 10.5984 1.0752 12.4416 7.7824zM255.1296 394.0352l-50.8928-90.112c-1.7408-3.584 0-7.0656 1.7408-10.5472 1.7408-3.4816 6.9632-5.2736 10.4448-3.4816l62.5152 17.5104 17.408-63.0784c1.7408-3.4816 5.1712-7.0144 10.3936-7.0144l3.1744 0.4608a13.2096 13.2096 0 0 1 5.5296 3.072l54.9888 102.9632a208.7424 208.7424 0 0 0-115.3024 50.2272z m282.4704 7.3216a211.0464 211.0464 0 0 0-111.7184-55.9104l58.0608-102.8608a9.5744 9.5744 0 0 1 8.704-5.2736c5.1712 0 8.6528 3.5328 6.912 8.7552l17.408 63.0784 62.464-17.5104c3.5328-1.7408 8.704 0 10.4448 3.4816 3.4816 1.7408 3.4816 7.0144 1.7408 10.496zM392.0896 743.5776c-103.8848 0-189.0304-85.504-189.0304-189.9008 0-104.3456 85.1456-189.9008 189.0304-189.9008 105.5744 0 190.72 87.2448 190.72 191.5904 0 104.3456-86.8352 188.2112-190.72 188.2112zM383.3344 642.56a10.752 10.752 0 0 0 19.2 0l24.9856-47.9744 51.8656-9.984c3.84 0 7.68-3.9936 7.68-7.9872 1.9456-3.9936 0-7.9872-1.8944-11.9808l-36.5056-39.936 5.7344-54.016a15.5648 15.5648 0 0 0-3.84-9.984c-3.84-2.048-7.68-2.048-11.52-2.048l-48.0256 24.064-48.0256-24.064h-1.9456c-1.8944 0-3.84 0-5.7344 2.048-3.84 1.9968-5.7856 5.9904-3.84 9.984l5.7344 53.9648-36.5056 39.936c-1.8944 4.0448-3.84 8.0384-1.8944 12.032a15.4112 15.4112 0 0 0 7.68 7.9872l51.8656 9.984z"  horiz-adv-x="1024" />

    
    <glyph glyph-name="jianglipingxuan" unicode="&#59246;" d="M816.0256 287.9488a207.9744 207.9744 0 1 0 0-415.9488 207.9744 207.9744 0 0 0 0 415.9488zM787.7632 844.8a147.3024 147.3024 0 0 0 147.3024-147.3024v-381.44a259.9424 259.9424 0 0 1-355.1744-355.1744l-381.3888 0.0512A147.3024 147.3024 0 0 0 51.2 108.2368V697.4976A147.3024 147.3024 0 0 0 198.5024 844.8h589.2608z m48.4864-617.6768a6.3488 6.3488 0 0 1-5.0688-1.4336 6.144 6.144 0 0 1-2.2016-4.7104c0-5.9392 0-7.5264-2.1504-12.1856l-0.1536-0.256-0.2048-0.3072-28.4672-48.6912a38.2464 38.2464 0 0 0-15.3088-13.9264l-4.096-1.3824a25.2416 25.2416 0 0 1-22.784-20.6848l-0.3584-4.2496v-120.32c0-12.2368 8.9088-22.3744 20.6848-24.4736l4.5056-0.4096h116.3776c11.1616 0 20.7872 7.168 24.064 17.3568l0.9728 4.5056 14.848 120.32a24.9856 24.9856 0 0 1-20.48 27.4944l-4.5568 0.4608h-49.2544c-13.6704 0-18.0736 6.3488-13.312 19.0976l1.9456 4.5056 11.52 19.712a20.48 20.48 0 0 1-3.8912 25.4976c-5.7344 5.888-17.2544 13.4144-22.6304 14.08z m-118.6304-82.944h-12.5952a20.992 20.992 0 0 1-20.6336-16.5376l-0.4096-4.1984V-5.12c0-10.0352 7.168-18.432 16.7936-20.3264l4.2496-0.4096h12.5952a20.992 20.992 0 0 1 20.5824 16.5376l0.4096 4.1984v128.6144a20.8896 20.8896 0 0 1-20.992 20.7872z m-462.4896 249.856l-50.8928-90.112c-1.7408-3.584 0-7.0656 1.7408-10.5472 1.7408-3.4816 6.9632-5.2736 10.4448-3.4816l62.5152 17.5104 17.408-63.0784c1.7408-3.4816 5.1712-7.0144 10.3936-7.0144l3.1744 0.4608a13.2096 13.2096 0 0 1 5.5296 3.072l54.9888 102.9632a208.7424 208.7424 0 0 0-115.3024 50.2272z m282.4704 7.3216a211.0464 211.0464 0 0 0-111.7184-55.9104l58.0608-102.8608a9.5744 9.5744 0 0 1 8.704-5.2736c5.1712 0 8.6528 3.5328 6.912 8.7552l17.408 63.0784 62.464-17.5104c3.5328-1.7408 8.704 0 10.4448 3.4816 3.4816 1.7408 3.4816 7.0144 1.7408 10.496zM392.0896 743.5776c-103.8848 0-189.0304-85.504-189.0304-189.9008 0-104.3456 85.1456-189.9008 189.0304-189.9008 105.5744 0 190.72 87.2448 190.72 191.5904 0 104.3456-86.8352 188.2112-190.72 188.2112zM383.3344 642.56a10.752 10.752 0 0 0 19.2 0l24.9856-47.9744 51.8656-9.984c3.84 0 7.68-3.9936 7.68-7.9872 1.9456-3.9936 0-7.9872-1.8944-11.9808l-36.5056-39.936 5.7344-54.016a15.5648 15.5648 0 0 0-3.84-9.984c-3.84-2.048-7.68-2.048-11.52-2.048l-48.0256 24.064-48.0256-24.064h-1.9456c-1.8944 0-3.84 0-5.7344 2.048-3.84 1.9968-5.7856 5.9904-3.84 9.984l5.7344 53.9648-36.5056 39.936c-1.8944 4.0448-3.84 8.0384-1.8944 12.032a15.4112 15.4112 0 0 0 7.68 7.9872l51.8656 9.984z"  horiz-adv-x="1024" />

    
    <glyph glyph-name="yingjiwuzi" unicode="&#59247;" d="M947.2 357.0688a76.8 76.8 0 0 0 76.4416-69.4272l0.3584-7.3728V-51.2a76.8 76.8 0 0 0-69.4272-76.4416L947.2-128h-331.4688a76.8 76.8 0 0 0-76.4416 69.4272l-0.3584 7.3728v331.4688a76.8 76.8 0 0 0 69.4272 76.4416l7.3728 0.3584H947.2z m-538.9312 0a76.8 76.8 0 0 0 76.4416-69.4272l0.3584-7.3728V-51.2a76.8 76.8 0 0 0-69.4272-76.4416L408.2688-128H76.8a76.8 76.8 0 0 0-76.4416 69.4272L0-51.2v331.4688a76.8 76.8 0 0 0 69.4272 76.4416l7.3728 0.3584h331.4688z m475.648-107.8272h-204.8a32.3584 32.3584 0 0 1-4.8128-64.3072l4.7616-0.3584h204.8a32.3584 32.3584 0 1 1 0 64.6656z m-538.9824 0h-204.8a32.3584 32.3584 0 0 1-4.7616-64.3072l4.7616-0.3584h204.8a32.3584 32.3584 0 1 1 0 64.6656zM677.7344 896a76.8 76.8 0 0 0 76.4416-69.4272l0.3584-7.3728v-331.4688a76.8 76.8 0 0 0-69.4272-76.4416l-7.3728-0.3584H346.2656A76.8 76.8 0 0 0 269.824 480.3584l-0.3584 7.3728V819.2A76.8 76.8 0 0 0 338.944 895.6416L346.2656 896h331.4688zM614.4 788.224H409.6a32.3584 32.3584 0 0 1-4.7616-64.3584L409.6 723.5584h204.8a32.3584 32.3584 0 0 1 4.7616 64.3072L614.4 788.224z"  horiz-adv-x="1024" />

    
    <glyph glyph-name="yingjirenyuan" unicode="&#59248;" d="M947.2 674.1504v-372.9408a197.12 197.12 0 0 1-226.6624 131.4304 198.8608 198.8608 0 0 1-137.5232-285.5424 261.632 261.632 0 0 1-79.0528-145.152c-2.8672-18.432-0.1024-36.608 6.3488-53.1456H221.8496A145.0496 145.0496 0 0 0 76.8 93.8496V674.1504A145.0496 145.0496 0 0 0 221.8496 819.2h580.3008A145.0496 145.0496 0 0 0 947.2 674.1504z m-293.9392-365.568a127.744 127.744 0 1 0 177.152-177.152 187.8528 187.8528 0 0 0 114.8928-139.776 34.9184 34.9184 0 0 0-34.0992-41.3696l-295.68 2.1504a34.9184 34.9184 0 0 0-41.4208 39.2192 188.0576 188.0576 0 0 0 114.944 139.776 127.744 127.744 0 0 0-41.0624 168.4992l5.2736 8.704z m-237.824-48.2304H236.9024a34.9696 34.9696 0 1 1 0-69.888h178.5344a34.9696 34.9696 0 1 1 0 69.888z m0 186.2656H236.9024a34.9696 34.9696 0 1 1 0-69.888h178.5344a34.9696 34.9696 0 0 1 4.8128 69.7856l-4.8128 0.1024z m124.1088 186.3168H236.8512a34.9184 34.9184 0 0 1 0-69.8368h302.848a34.9184 34.9184 0 0 1 5.2224 69.4272l-5.376 0.4096z"  horiz-adv-x="1024" />

    
    <glyph glyph-name="jijiuwuzi" unicode="&#59249;" d="M433.222656 738.8672c0-26.8288-18.432-48.64-41.1136-48.64H64.787456c-22.7328 0-41.1648 21.8112-41.1648 48.64 0 26.88 18.432 48.64 41.1648 48.64h327.3216c22.6816 0 41.1136-21.76 41.1136-48.64z m557.2608 0c0-26.8288-18.432-48.64-41.1648-48.64h-327.2704c-22.7328 0-41.1648 21.8112-41.1648 48.64 0 26.88 18.432 48.64 41.1648 48.64h327.2704c22.7328 0 41.1648-21.76 41.1648-48.64zM507.053056 696.32c27.1872 0 49.2544 21.76 49.2544 48.64 0 26.88-22.016 48.64-49.2544 48.64a48.9472 48.9472 0 0 1-49.2032-48.64c0-26.88 22.016-48.64 49.2032-48.64zM461.689856 435.2a18.7904 18.7904 0 0 1-18.7904-18.7904v-37.9904h-39.1168a19.456 19.456 0 0 1 0-38.8096h39.1168v-39.2192a18.7904 18.7904 0 1 1 37.5808 0v39.2192h38.0928a19.456 19.456 0 0 1 0 38.8096h-38.0928v37.9904A18.7904 18.7904 0 0 1 461.689856 435.2z m143.4624 92.416c0 47.9232-38.4512 86.784-85.9136 86.784H451.245056c-33.28 0-64.6656-15.5648-84.992-42.1376l-38.4-50.176c-47.616 9.3184-82.5856-5.12-104.8064-43.2128l-107.6224 2.6112-24.7296 90.112a54.9888 54.9888 0 0 1-49.7152 40.4992 38.4 38.4 0 0 1-40.448-36.352v-1.5872c-1.3824-87.6032 7.68-145.152 27.0848-172.6464 19.0464-26.9824 64.4096-38.0416 102.5536-43.8784l18.2784-2.56 29.2352-3.6864a47.616 47.616 0 0 0 11.776-2.7136l8.7552-4.5056c8.96-5.12 13.5168-10.5472 12.8-25.2416l-1.792-20.992-1.024-18.0736-0.4096-14.336v-7.7824l0.4096-16.64c0.1024-2.8672 0.3072-5.7856 0.512-8.7552l1.536-18.3296c6.912-62.6688 30.464-139.776 99.7888-192.512 81.664-62.0544 194.4064-74.3936 278.8864-74.24l23.296 0.3072 21.504 0.8704 19.3024 1.1264 41.984 3.2256c51.6608 3.6864 189.44 36.1472 272.896 92.16 83.5584 55.9616 73.216 205.056-23.1936 342.528-48.2304 68.7104-122.2656 103.7312-184.2688 121.6l-18.176 4.864-17.2544 3.8912-16.0768 3.072-14.6432 2.4064-13.056 1.7408-15.9744 1.5872-16.7424 1.024h-43.3664zM461.229056 230.4a128 128 0 1 0 0 256.0512A128 128 0 0 0 461.177856 230.4z m218.1632 48.4352V501.9136l11.4176-1.7408 13.056-2.56 17.0496-3.9936 13.1072-3.6352 14.336-4.4544c4.9664-1.6384 10.0352-3.4304 15.2576-5.376l16.0256-6.4c73.3184-31.0784 161.9968-94.6688 173.7216-222.0032h-248.32c-14.1824 0-25.6 12.1344-25.6 27.136z"  horiz-adv-x="1024" />

    
    <glyph glyph-name="yingjiyanlian" unicode="&#59251;" d="M512 896c282.7776 0 512-229.2224 512-512s-229.2224-512-512-512S0 101.2224 0 384 229.2224 896 512 896z m132.2496-425.984c-91.648 129.9968-226.8672 63.3856-245.9136 50.3296-12.6464-8.704-39.2704-47.4112-79.872-116.224-14.4384-16.1792-13.312-31.9488 3.2256-47.2064 16.5888-15.3088 32.6656-14.08 48.2816 3.584l41.8816 61.952c11.008 24.1664 20.8896 37.888 29.5936 41.3696 8.704 3.4304 12.1344-1.28 10.24-14.2336a18171.2896 18171.2896 0 0 0-57.5488-182.784c-7.0656-20.9408-20.0704-8.3968-34.6624-2.8672-14.592 5.5808-71.68 51.0976-95.5392 14.848-15.872-24.1664-7.936-44.8 23.808-61.952 33.024-17.6128 66.3552-34.0992 100.096-49.3568 50.6368-22.8352 61.8496 16.5888 66.048 22.8864 28.3136 65.5872 40.0896 78.336 41.1136 78.848 29.44 1.7408 53.1456-3.2256 71.168-14.9504 16.384-60.0064 26.88-98.9184 31.3856-116.736 6.7584-26.7776 22.016-34.048 51.712-24.6784 19.8656 6.2464 27.1872 19.7632 22.016 40.6016a8854.528 8854.528 0 0 1-40.192 163.6352c-8.7552 12.544-39.5264 24.064-92.2624 34.5088l30.3104 84.8384c3.9936 1.4336 18.944-18.688 33.5872-32.3584 9.7792-9.0624 19.2512-11.776 28.3648-8.0896a1608.704 1608.704 0 0 0 56.6272 12.8C711.5264 416.0512 768 416.768 768 452.6592c0 23.9104-13.312 35.4816-39.936 34.6112-42.752-14.2336-70.656-19.968-83.8144-17.2032zM564.0704 691.2a64.3584 64.3584 0 1 1 0.1024-128.6656A64.3584 64.3584 0 0 1 564.0704 691.2z"  horiz-adv-x="1024" />

    
    <glyph glyph-name="dianjianxinxi" unicode="&#59252;" d="M813.6704 292.6592a210.3296 210.3296 0 1 0 0-420.6592 210.3296 210.3296 0 0 0 0 420.6592zM796.16 844.8a148.992 148.992 0 0 0 148.992-148.992v-385.7408a262.912 262.912 0 0 1-359.2192-359.2192H200.192A148.992 148.992 0 0 0 51.2 99.84V695.808A148.992 148.992 0 0 0 200.192 844.8h595.968z m32.6656-844.2368h-92.9792l-3.9424-0.256a18.2272 18.2272 0 0 1 0-35.84l3.9424-0.3072h92.9792l3.9424 0.256a18.2272 18.2272 0 0 1-3.9424 36.1472z m0 97.024h-92.9792l-3.9424-0.256a18.2272 18.2272 0 0 1 0-35.8912l3.9424-0.256h92.9792l3.9424 0.256a18.2272 18.2272 0 0 1 1.8944 35.4304l-3.3792 0.6144-2.4576 0.1024zM893.44 194.56H735.744l-3.6352-0.3584a18.176 18.176 0 0 1 0-35.6352l3.6352-0.3584h157.696l3.84 0.4096a18.176 18.176 0 0 1 2.816 34.6624l-3.9424 1.0752-2.7648 0.2048zM502.1696 691.2H230.4C216.2688 691.2 204.8 680.9088 204.8 668.16v-368.64c0-12.7488 11.4688-23.04 25.6-23.04h318.8736a65.024 65.024 0 0 1 64.5632 65.4848V483.84a21.6576 21.6576 0 0 1-21.504 21.8112c-11.8784 0-21.504-9.728-21.504-21.8112v-141.8752a21.6576 21.6576 0 0 0-21.5552-21.8112 21.6576 21.6576 0 0 0-21.504 21.8112l-0.0512 167.4752-6.7584-1.1776-29.3376-2.816a4.9664 4.9664 0 0 0-4.096 1.4848 5.12 5.12 0 0 0-1.4336 4.096l2.7648 29.7984a51.2 51.2 0 0 0 14.3872 31.0272l24.4736 24.7808V668.16c0 12.7488-11.4176 23.04-25.5488 23.04z m-130.56-261.9392c8.96 0 16.1792-7.3216 16.1792-16.384 0-9.0112-7.2192-16.384-16.128-16.384H285.5424a16.2816 16.2816 0 0 0-16.1792 16.384c0 9.0624 7.2704 16.384 16.1792 16.384z m75.4176 65.536c8.9088 0 16.128-7.3728 16.128-16.384 0-9.0624-7.2192-16.384-16.128-16.384H285.5424a16.2816 16.2816 0 0 0-16.1792 16.384c0 9.0112 7.2704 16.384 16.1792 16.384z m212.2752 161.3824a25.3952 25.3952 0 0 1-35.9936 3.7888l-106.496-87.4496-3.84-3.584a38.4512 38.4512 0 0 1-9.3696-18.432l-4.4032-22.016v-1.6384l0.7168-1.536a3.7376 3.7376 0 0 1 2.9696-1.3824l22.1184-0.256 5.12 0.3584a37.4784 37.4784 0 0 1 18.7904 8.192l106.5472 87.4496 3.328 3.2768a26.2656 26.2656 0 0 1 0.512 33.28z m-217.7024-30.464c11.9296 0 21.504-9.728 21.504-21.8112v-43.6736a21.6576 21.6576 0 0 0-21.504-21.8112H290.9184a21.6576 21.6576 0 0 0-21.504 21.8112v43.6736c0 12.032 9.6256 21.8112 21.504 21.8112z m194.9184 18.5856a5.6832 5.6832 0 0 0 5.9392-1.9456 5.888 5.888 0 0 0-0.7168-8.0896l-14.6944-11.9808-1.28-0.8192a5.376 5.376 0 0 0-2.9184-0.4608 5.632 5.632 0 0 0-3.8912 2.1504 5.9392 5.9392 0 0 0 0.8704 8.192l14.6944 11.9808z"  horiz-adv-x="1024" />

    
    <glyph glyph-name="dianjianbiao" unicode="&#59253;" d="M813.824 292.6592A210.2272 210.2272 0 0 0 1024 82.3296 210.2272 210.2272 0 0 0 813.824-128a210.2272 210.2272 0 0 0-210.1248 210.3296 210.2272 210.2272 0 0 0 210.1248 210.3296zM795.4944 844.8a148.9408 148.9408 0 0 0 148.8896-148.992v-385.7408a262.8096 262.8096 0 0 1-394.0864-227.7376c0-47.872 12.8-92.8256 35.1744-131.4816H200.0384A148.9408 148.9408 0 0 0 51.2 99.84V695.808A148.9408 148.9408 0 0 0 200.0384 844.8h595.456z m115.5584-808.3456H715.776c-2.56 0-4.6592-2.0992-4.6592-4.7104v-46.4384c0-2.56 2.048-4.6592 4.6592-4.6592h195.2768c2.56 0 4.7104 2.048 4.7104 4.6592v46.4384c0 2.56-2.0992 4.7104-4.7104 4.7104z m-96.768-17.664c2.56 0 4.6592-2.0992 4.6592-4.7104v-11.1104c0-2.56-2.048-4.6592-4.6592-4.6592h-11.1104a4.6592 4.6592 0 0 0-4.7104 4.6592v11.1104c0 2.56 2.0992 4.7104 4.7104 4.7104h11.1104z m76.288 0c2.6112 0 4.7104-2.0992 4.7104-4.7104v-11.1104c0-2.56-2.048-4.6592-4.6592-4.6592h-46.4896a4.6592 4.6592 0 0 0-4.7104 4.6592v11.1104c0 2.56 2.0992 4.7104 4.7104 4.7104h46.4896z m20.48 92.2624H715.776c-2.56 0-4.6592-2.048-4.6592-4.6592v-46.4896c0-2.56 2.048-4.6592 4.6592-4.6592h195.2768c2.56 0 4.7104 2.048 4.7104 4.6592v46.4896c0 2.56-2.0992 4.6592-4.7104 4.6592z m-96.768-17.664c2.56 0 4.6592-2.048 4.6592-4.6592v-11.1616c0-2.56-2.048-4.6592-4.6592-4.6592h-11.1104a4.6592 4.6592 0 0 0-4.7104 4.6592v11.1616c0 2.56 2.0992 4.6592 4.7104 4.6592h11.1104z m76.288 0c2.6112 0 4.7104-2.048 4.7104-4.6592v-11.1616c0-2.56-2.048-4.6592-4.6592-4.6592h-46.4896a4.6592 4.6592 0 0 0-4.7104 4.6592v11.1616c0 2.56 2.0992 4.6592 4.7104 4.6592h46.4896z m20.48 91.9552H715.776c-2.56 0-4.6592-2.048-4.6592-4.6592v-46.4896c0-2.56 2.048-4.6592 4.6592-4.6592h195.2768c2.56 0 4.7104 2.048 4.7104 4.6592v46.4896c0 2.56-2.0992 4.6592-4.7104 4.6592z m-96.768-17.664c2.56 0 4.6592-2.048 4.6592-4.6592v-11.1616c0-2.56-2.048-4.6592-4.6592-4.6592h-11.1104a4.6592 4.6592 0 0 0-4.7104 4.6592v11.1616c0 2.56 2.0992 4.6592 4.7104 4.6592h11.1104z m76.288 0c2.6112 0 4.7104-2.048 4.7104-4.6592v-11.1616c0-2.56-2.048-4.6592-4.6592-4.6592h-46.4896a4.6592 4.6592 0 0 0-4.7104 4.6592v11.1616c0 2.56 2.0992 4.6592 4.7104 4.6592h46.4896zM501.8624 691.2H230.1952c-14.08 0-25.5488-10.2912-25.5488-23.04v-368.64c0-12.7488 11.4688-23.04 25.6-23.04h318.6176a65.024 65.024 0 0 1 64.512 65.4848V483.84a21.6576 21.6576 0 0 1-21.504 21.8112c-11.8784 0-21.504-9.728-21.504-21.8112v-141.8752a21.6576 21.6576 0 0 0-21.504-21.8112 21.6576 21.6576 0 0 0-21.504 21.8112V668.16c0 12.7488-11.4688 23.04-25.6 23.04zM371.3536 429.2608c8.96 0 16.1792-7.3216 16.1792-16.384 0-9.0112-7.2192-16.384-16.1792-16.384h-86.016a16.2304 16.2304 0 0 0-16.128 16.384c0 9.0624 7.168 16.384 16.128 16.384z m75.3152 65.536c8.9088 0 16.128-7.3728 16.128-16.384 0-9.0624-7.2192-16.384-16.128-16.384H285.3376a16.2304 16.2304 0 0 0-16.128 16.384c0 9.0112 7.168 16.384 16.128 16.384zM441.2928 625.664c11.8784 0 21.504-9.728 21.504-21.8112v-43.6736a21.6576 21.6576 0 0 0-21.504-21.8112H290.7136a21.6576 21.6576 0 0 0-21.504 21.8112v43.6736c0 12.032 9.6256 21.8112 21.504 21.8112z"  horiz-adv-x="1024" />

    
    <glyph glyph-name="turn" unicode="&#59229;" d="M512 896c282.7776 0 512-229.2224 512-512s-229.2224-512-512-512S0 101.2224 0 384 229.2224 896 512 896z m0-76.8a435.2 435.2 0 1 1 0-870.4 435.2 435.2 0 0 1 0 870.4z m195.2768-165.7856c31.8464 14.6944 65.024-17.5104 51.456-49.8176l-211.3536-500.8896c-14.1312-33.536-62.6688-30.4128-72.3968 4.7104l-55.2448 199.936-183.552 55.0912c-31.9488 9.6256-36.6592 51.7632-10.0352 68.9152l5.0176 2.7648z m-57.856-111.1552L355.4304 406.8352l106.7008-32a38.4 38.4 0 0 0 24.064-21.2992l1.8944-5.2736 31.4368-113.8688 129.8944 307.8656z"  horiz-adv-x="1024" />

    
    <glyph glyph-name="unselected" unicode="&#59227;" d="M512 896C229.216 896 0 666.784 0 384s229.216-512 512-512 512 229.216 512 512S794.784 896 512 896z m0-96c229.76 0 416-186.24 416-416s-186.24-416-416-416S96 154.24 96 384 282.24 800 512 800z"  horiz-adv-x="1024" />

    
    <glyph glyph-name="pitchon" unicode="&#59228;" d="M512 896c282.784 0 512-229.216 512-512s-229.216-512-512-512S0 101.216 0 384 229.216 896 512 896z m0-96C282.24 800 96 613.76 96 384s186.24-416 416-416 416 186.24 416 416S741.76 800 512 800z m0-192a224 224 0 1 0 0-448 224 224 0 0 0 0 448z"  horiz-adv-x="1024" />

    
    <glyph glyph-name="xinxiku" unicode="&#59225;" d="M170.666667 896.056889h682.666666a170.666667 170.666667 0 0 0 170.666667-170.666667v-682.666666a170.666667 170.666667 0 0 0-170.666667-170.666667H170.666667a170.666667 170.666667 0 0 0-170.666667 170.666667v682.666666a170.666667 170.666667 0 0 0 170.666667 170.666667z m538.396444-241.834667H315.164444A30.947556 30.947556 0 0 1 284.444444 623.160889v-478.321778c0-17.009778 13.653333-31.061333 30.72-31.061333h393.614223c16.839111 0 30.72 13.767111 30.72 31.061333V623.160889a30.549333 30.549333 0 0 1-30.435556 31.061333zM509.724444 230.343111H392.760889a23.096889 23.096889 0 0 0-22.983111 23.267556c0 12.913778 10.410667 23.210667 22.983111 23.210666H509.724444c12.8 0 22.983111-10.524444 22.983112-23.267555a23.096889 23.096889 0 0 0-22.983112-23.210667z m121.628445 131.811556H392.931556a23.210667 23.210667 0 0 0 0 46.478222h238.136888c12.913778 0 23.153778-10.524444 23.153778-23.267556a22.983111 22.983111 0 0 0-22.869333-23.210666z m0 131.811555H392.931556a23.210667 23.210667 0 0 0 0 46.478222h238.136888c12.913778 0 23.153778-10.524444 23.153778-23.267555a22.983111 22.983111 0 0 0-22.869333-23.210667z"  horiz-adv-x="1024" />

    
    <glyph glyph-name="jianchaxinxi" unicode="&#59226;" d="M853.333333 896.056889a170.666667 170.666667 0 0 0 170.666667-170.666667v-682.666666a170.666667 170.666667 0 0 0-170.666667-170.666667H170.666667a170.666667 170.666667 0 0 0-170.666667 170.666667v682.666666a170.666667 170.666667 0 0 0 170.666667 170.666667h682.666666zM623.104 640H287.573333a30.833778 30.833778 0 0 1-31.573333-30.037333v-480.995556c0-16.611556 14.108444-30.037333 31.573333-30.037333h393.671111c44.088889 0 79.758222 38.229333 79.758223 85.447111V369.436444c0 15.758222-11.946667 28.501333-26.567111 28.501334-14.677333 0-26.567111-12.743111-26.567112-28.444445v-185.116444c0-15.758222-11.946667-28.501333-26.624-28.501333s-26.567111 12.743111-26.567111 28.444444l0.056889 218.510222a58.197333 58.197333 0 0 0-8.419555-1.479111l-36.238223-3.697778a5.973333 5.973333 0 0 0-5.063111 1.934223 6.940444 6.940444 0 0 0-1.706666 5.404444l3.413333 38.798222c1.365333 15.303111 7.623111 29.582222 17.749333 40.448l30.208 32.426667v93.297778a30.833778 30.833778 0 0 1-31.573333 30.037333z m-161.109333-341.731556c10.979556 0 19.911111-9.557333 19.911111-21.390222 0-11.776-8.931556-21.333333-19.911111-21.333333H355.669333c-10.979556 0-19.911111 9.557333-19.911111 21.333333 0 11.832889 8.931556 21.390222 19.911111 21.390222z m93.013333 85.447112c11.036444 0 19.911111-9.557333 19.911111-21.390223 0-11.776-8.874667-21.333333-19.911111-21.333333H355.669333c-10.979556 0-19.911111 9.557333-19.911111 21.333333 0 11.832889 8.931556 21.390222 19.911111 21.390223z m262.656 211.114666a30.151111 30.151111 0 0 1-44.487111 4.664889L640.967111 484.693333l-4.721778-4.664889a51.882667 51.882667 0 0 1-11.776-24.064l-5.575111-28.728888-0.113778-1.479112a5.12 5.12 0 0 1 1.024-2.673777c0.853333-1.137778 2.218667-1.820444 3.640889-1.820445l27.306667-0.113778 6.371556 0.455112a45.738667 45.738667 0 0 1 23.267555 10.808888l132.266667 114.858667 4.096 4.266667a35.783111 35.783111 0 0 1 0.910222 43.349333z m-269.312-40.277333c14.677333 0 26.624-12.743111 26.624-28.444445v-57.002666c0-15.701333-11.946667-28.444444-26.624-28.444445H362.382222c-14.677333 0-26.567111 12.743111-26.567111 28.444445V526.108444c0 15.701333 11.889778 28.444444 26.567111 28.444445z m241.038222 24.632889a6.769778 6.769778 0 0 0 7.281778-2.503111 7.964444 7.964444 0 0 0-0.910222-10.581334l-18.204445-15.701333-1.592889-1.137778a6.826667 6.826667 0 0 0-8.419555 2.104889 8.021333 8.021333 0 0 0 1.137778 10.808889l18.204444 15.701333z"  horiz-adv-x="1024" />

    
    <glyph glyph-name="hazards3" unicode="&#59222;" d="M813.6704 292.6592a210.3296 210.3296 0 1 0 0-420.6592 210.3296 210.3296 0 0 0 0 420.6592z m58.88-70.8608l-112.7936-20.3264a10.24 10.24 0 0 1-8.2944-8.3968l-22.4256-134.5536a10.24 10.24 0 0 1 8.3968-11.776l1.6896-0.1536h37.6832c5.632 0 10.24-4.608 10.24-10.24l-15.36-117.76 158.8224 208.6912-71.0144-8.6016a10.24 10.24 0 0 0-10.5472 14.4896l34.7136 74.1888a10.24 10.24 0 0 1-11.1104 14.4384zM796.16 844.8a148.992 148.992 0 0 0 148.992-148.992v-385.7408a262.912 262.912 0 0 1-359.2192-359.2192H200.192A148.992 148.992 0 0 0 51.2 99.84V695.808A148.992 148.992 0 0 0 200.192 844.8h595.968z m-235.6736-529.0496H224.5632c-13.1584 0-19.7632-6.6048-19.7632-19.7632l0.1536-3.4304c1.0752-10.9056 7.68-16.384 19.6096-16.384h335.9232c13.2096 0 19.7632 6.656 19.7632 19.8144l-0.1536 3.4304c-1.0752 10.8544-7.6288 16.3328-19.6096 16.3328z m0 79.0528H471.6032c-13.2096 0-19.7632-6.656-19.7632-19.7632l0.1536-3.4304c1.0752-10.9056 7.6288-16.384 19.6096-16.384h88.8832c13.2096 0 19.7632 6.656 19.7632 19.8144l-0.1536 3.4304c-1.0752 10.8544-7.6288 16.3328-19.6096 16.3328zM506.7264 668.672a59.904 59.904 0 0 1-83.3536 10.0864l-171.008-131.8912c-10.496-7.9872-17.92-19.3024-21.1456-32.1024l-25.2416-100.8128a39.3216 39.3216 0 0 1 38.2976-48.4864l105.3696-0.3072c13.312-0.1024 26.2656 4.3008 36.8128 12.3904l171.008 131.8912a58.112 58.112 0 0 1 10.24 82.2272z"  horiz-adv-x="1024" />

    
    <glyph glyph-name="hazards2" unicode="&#59223;" d="M796.16 844.8a148.992 148.992 0 0 0 148.992-148.992v-385.7408a262.912 262.912 0 0 1-359.2192-359.2192H200.192A148.992 148.992 0 0 0 51.2 99.84V695.808A148.992 148.992 0 0 0 200.192 844.8h595.968zM399.0016 270.848H215.6032a35.9424 35.9424 0 1 1 0-71.7824h183.3984a35.9424 35.9424 0 1 1 0 71.7824z m0 191.3344H215.6032a35.9424 35.9424 0 1 1 0-71.8336h183.3984a35.9424 35.9424 0 0 1 4.9152 71.68l-4.9152 0.1536z m414.6688-169.472a210.3296 210.3296 0 1 0 0-420.7104 210.3296 210.3296 0 0 0 0 420.6592z m58.88-70.912l-112.7936-20.3264a10.24 10.24 0 0 1-8.2944-8.3968l-22.4256-134.5536a10.24 10.24 0 0 1 8.3968-11.776l1.6896-0.1536h37.6832c5.632 0 10.24-4.608 10.24-10.24l-15.36-117.76 158.8224 208.6912-71.0144-8.6016a10.24 10.24 0 0 0-10.5472 14.4896l34.7136 74.1888a10.24 10.24 0 0 1-11.1104 14.4384z m-346.112 431.6672l5.5296-0.4096a35.84 35.84 0 0 0-5.3248-71.2704H215.552a35.84 35.84 0 0 0 0 71.68h310.9376z"  horiz-adv-x="1024" />

    
    <glyph glyph-name="hazards1" unicode="&#59224;" d="M796.16 844.8a148.992 148.992 0 0 0 148.992-148.992v-385.7408a262.912 262.912 0 0 1-359.2192-359.2192H200.192A148.992 148.992 0 0 0 51.2 99.84V695.808A148.992 148.992 0 0 0 200.192 844.8h595.968zM399.0016 270.848H215.6032a35.9424 35.9424 0 1 1 0-71.7824h183.3984a35.9424 35.9424 0 1 1 0 71.7824z m0 191.3344H215.6032a35.9424 35.9424 0 1 1 0-71.8336h183.3984a35.9424 35.9424 0 0 1 4.9152 71.68l-4.9152 0.1536z m414.6688-169.472a210.3296 210.3296 0 1 0 0-420.7104 210.3296 210.3296 0 0 0 0 420.6592z m68.9664-187.5456a83.2 83.2 0 0 1-97.9968 72.5504c-45.8752-8.9088-75.9808-54.0672-65.8944-98.9184a82.944 82.944 0 0 1 122.2144-55.1424c2.2016 1.1776 3.328 1.0752 5.0176-0.6656 13.9264-14.08 27.9552-28.0064 41.9328-41.984 8.448-8.448 20.2752-8.8064 28.16-0.9216 7.68 7.8848 7.3216 19.6096-0.9728 27.904-11.52 11.5712-23.04 23.1424-34.6624 34.6624-3.1744 3.1744-6.4512 6.2464-9.4208 9.1136 0.1536 0.8704 0.1536 1.0752 0.256 1.3312l0.8192 1.536a82.432 82.432 0 0 1 10.5472 50.5344z m-81.9712 40.7552a51.4048 51.4048 0 0 0 51.8144-50.9952c0.1536-28.3648-22.7328-51.2-51.3536-51.456a51.3536 51.3536 0 0 0-51.0464 50.4832 51.3536 51.3536 0 0 0 50.5856 51.968z m-274.176 507.5456l5.4784-0.4096a35.84 35.84 0 0 0-5.3248-71.2704H215.552a35.84 35.84 0 0 0 0 71.68h310.9376z"  horiz-adv-x="1024" />

    
    <glyph glyph-name="systemScan" unicode="&#59119;" d="M139.6224 495.7184c-22.3232 0-37.2224 14.848-37.2224 37.2224V681.984C102.4 741.4272 154.5216 793.6 214.1184 793.6H363.008c22.3232 0 37.2224-14.8992 37.2224-37.2224s-14.848-37.2736-37.2224-37.2736H214.016c-22.3232 0-37.1712-14.848-37.1712-37.2224V532.992c0-22.3232-14.8992-37.2224-37.2736-37.2224zM363.0592-25.6H214.016C154.5728-25.6 102.4 26.5216 102.4 86.1184V235.008c0 22.3232 14.8992 37.2224 37.2224 37.2224s37.2736-14.848 37.2736-37.2224v-148.992c0-22.272 14.848-37.1712 37.2224-37.1712H363.008c22.3232 0 37.2224-14.8992 37.2224-37.2224 0-22.3744-14.848-37.2736-37.2224-37.2736z m446.8224 0H660.992c-22.3232 0-37.2224 14.8992-37.2224 37.2736 0 22.3232 14.848 37.2224 37.2224 37.2224h148.992c22.272 0 37.1712 14.848 37.1712 37.2224V235.008c0 22.3232 14.8992 37.2224 37.2224 37.2224 22.3744 0 37.2736-14.848 37.2736-37.2224v-148.992C921.6 26.5728 869.4784-25.6 809.8816-25.6z m74.4448 521.3184c-22.3232 0-37.2224 14.848-37.2224 37.2224V681.984c0 22.3232-14.848 37.1712-37.2224 37.1712H660.992c-22.3232 0-37.2224 14.8992-37.2224 37.2736 0 22.3232 14.848 37.2224 37.2224 37.2224h148.992C869.4272 793.6 921.6 741.4784 921.6 681.8816V532.992c0-22.3232-14.8992-37.2224-37.2736-37.2224z m0-148.992H139.6224C117.2992 346.7776 102.4 361.6768 102.4 384c0 22.3232 14.8992 37.2224 37.2224 37.2224h744.704c22.3744 0 37.2736-14.848 37.2736-37.2224s-14.8992-37.2224-37.2736-37.2224z"  horiz-adv-x="1024" />

    
    <glyph glyph-name="functionalLawcommentrecords" unicode="&#59115;" d="M819.2 844.8a153.6 153.6 0 0 0 153.6-153.6v-614.4a153.6 153.6 0 0 0-153.6-153.6H204.8a153.6 153.6 0 0 0-153.6 153.6V691.2a153.6 153.6 0 0 0 153.6 153.6h614.4z m-169.8304-227.1232a279.3984 279.3984 0 0 1-274.8928 0A268.9024 268.9024 0 0 1 237.056 384.1024c0-148.992 123.0336-269.7728 274.8416-269.7728 151.8592 0 274.8928 120.7808 274.8928 269.7728a268.8512 268.8512 0 0 1-137.4208 233.5744zM511.8976 593.92c118.0672 0 213.8112-93.952 213.8112-209.7664 0-115.8656-95.744-209.8176-213.8112-209.8176a214.528 214.528 0 0 0-185.1392 104.9088 206.3872 206.3872 0 0 0 0 209.7664A214.5792 214.5792 0 0 0 511.8976 593.92zM491.264 512A29.952 29.952 0 0 1 460.8 482.56v-117.6576a29.184 29.184 0 0 1 13.568-24.5248l91.392-58.88a31.1808 31.1808 0 0 1 42.2912 8.192 28.8256 28.8256 0 0 1-8.448 40.8064l-77.824 50.1248V482.56a29.952 29.952 0 0 1-30.5152 29.44z"  horiz-adv-x="1024" />

    
    <glyph glyph-name="functionalhomeLaw1" unicode="&#59116;" d="M640.5632 814.08c65.8432 0 119.1936-51.8144 119.1936-115.712v-628.736c0-63.8976-53.3504-115.712-119.1936-115.712H119.1424C53.3504-46.08 0 5.7344 0 69.632V698.368C0 762.2656 53.3504 814.08 119.1424 814.08h521.4208z m167.2192-99.2256l3.3792-0.4608 48.2304-13.2096c47.9744-11.9808 77.9264-62.7712 67.2256-113.92l-107.8784-487.5776a238.6944 238.6944 0 0 0-5.9392-18.2272c-8.96-23.6544-15.1552-27.2384-18.944-28.3136h-1.0752V698.9312c0 4.864 2.048 9.472 5.632 12.4928a14.2336 14.2336 0 0 0 12.8 2.9696z m139.8272-174.08a12.9536 12.9536 0 0 0 12.5952-0.3584l28.4672-16.5376c32-18.6368 44.544-62.7712 28.1088-98.816l-157.1328-342.528a109.568 109.568 0 0 0-7.2704-12.5952 38.912 38.912 0 0 0-17.4592-16.7936h-1.3312l105.984 476.7744a15.8208 15.8208 0 0 0 8.0384 10.8544z m-439.9104-246.1184l-8.3968-5.4272a220.8256 220.8256 0 0 0-222.464-5.0176l-8.5504 5.0176-8.192 5.376v-98.4576l0.3072-3.9936a29.6448 29.6448 0 0 1 8.704-17.2544 31.3856 31.3856 0 0 1 40.8064-2.56l2.9696 2.56 70.912 69.2224 70.9632-69.2224 3.5328-2.9696a31.5904 31.5904 0 0 1 30.3104-3.584 30.3616 30.3616 0 0 1 18.8416 23.9616l0.256 4.0448v98.304zM384 648.704c-102.6048 0-185.8048-81.152-185.8048-181.248 0-100.1472 83.2-181.3504 185.8048-181.3504s185.8048 81.2032 185.8048 181.2992c0 100.1472-83.2 181.2992-185.8048 181.2992z"  horiz-adv-x="1024" />

    
    <glyph glyph-name="functionalLawsuitableitems" unicode="&#59117;" d="M683.52 896c3.356444-1.678222 5.461333-2.076444 8.163556-3.128889l2.986666-1.336889 281.173334-236.117333c1.905778-2.275556 3.072-5.404444 3.527111-8.248889l0.256-2.702222v-652.003556a120.462222 120.462222 0 0 0-114.460445-120.32l-6.030222-0.142222H165.12a120.462222 120.462222 0 0 0-120.32 114.460444l-0.142222 6.001778V775.537778A120.462222 120.462222 0 0 0 159.118222 895.857778L165.12 896h518.428444z m-66.759111-365.084444c-91.278222 0-166.968889-75.662222-166.968889-166.968889 0-24.462222 6.684444-48.952889 15.587556-71.224889 0-2.218667-2.218667-2.218667-2.218667-4.437334l-89.031111-182.556444c-4.465778-8.903111-2.247111-17.806222 4.437333-24.462222 6.684444-6.684444 15.587556-8.931556 24.490667-4.465778l75.662222 33.393778 15.616-77.937778c2.218667-8.874667 8.903111-15.559111 20.024889-17.777778h2.218667c8.903111 0 17.806222 4.437333 20.053333 13.368889l73.443555 169.159111h8.903112l73.472-169.187555c4.437333-8.903111 11.121778-13.368889 20.024888-13.368889h2.247112c8.903111 0 17.806222 8.931556 20.024888 17.834666l15.587556 77.909334 75.662222-33.393778c8.931556-4.465778 17.834667-2.218667 24.490667 4.465778 11.150222 8.903111 11.150222 20.024889 8.903111 26.709333l-89.031111 182.528-2.218667 2.218667c11.121778 22.272 15.587556 46.762667 15.587556 71.253333 0 91.249778-75.690667 166.968889-166.968889 166.968889z m-122.424889-278.243556a160.483556 160.483556 0 0 1 73.443556-46.762667l-42.296889-93.496889-6.656 35.612445c-2.247111 6.684444-4.465778 11.150222-11.150223 15.587555a16.696889 16.696889 0 0 1-20.024888 0l-46.762667-20.024888 53.447111 109.084444z m244.849778 0l53.447111-109.084444-46.762667 20.024888a30.890667 30.890667 0 0 1-20.024889 0 16.753778 16.753778 0 0 1-11.121777-15.587555l-6.684445-35.612445-42.296889 93.496889a160.483556 160.483556 0 0 1 73.443556 46.762667z m-122.424889 235.946667c66.787556 0 122.424889-55.637333 122.424889-122.424889 0-66.787556-55.637333-122.424889-122.424889-122.424889a122.083556 122.083556 0 0 0-122.424889 122.424889c0 66.787556 55.637333 122.424889 122.424889 122.424889z m-260.437333-102.4H180.451556c-13.368889 0-22.272-8.903111-22.272-22.243556 0-13.368889 8.903111-22.272 22.272-22.272h175.872a22.300444 22.300444 0 0 1 22.243555 22.272c0 13.368889-8.903111 22.243556-22.243555 22.243556z m66.759111 178.090666h-242.631111c-13.368889 0-22.272-8.903111-22.272-22.243555 0-13.368889 8.903111-22.272 22.272-22.272h242.631111a22.300444 22.300444 0 0 1 22.272 22.272c0 13.368889-8.903111 22.243556-22.272 22.243555z m267.150222 271.587556v-189.212445h224.824889l-224.824889 189.212445z m-155.847111-115.768889H180.451556c-13.368889 0-22.272-8.903111-22.272-22.243556 0-13.368889 8.903111-22.272 22.272-22.272h356.181333c11.121778 0 20.024889 8.903111 20.024889 22.272 0 13.368889-8.903111 22.243556-22.272 22.243556z"  horiz-adv-x="1024" />

    
    <glyph glyph-name="functionalLawRegulations" unicode="&#59118;" d="M512 896c61.8496 0 205.568-52.2752 431.104-156.8256a51.2 51.2 0 0 0 29.696-46.4384V281.6c0-136.5504-354.4576-409.6-460.8-409.6s-460.8 273.0496-460.8 409.6V692.7872a51.2 51.2 0 0 0 29.5424 46.4384C304.7424 843.7248 448.512 896 512 896z m-49.6128-273.1008H280.4224a16.4864 16.4864 0 0 1-16.5376-16.384v-360.448c0-9.0624 7.424-16.384 16.5376-16.384h176.128c8.8064-6.2976 27.2384-16.384 55.4496-16.384 28.2624 0 46.6944 10.0864 55.5008 16.384h176.128a16.4864 16.4864 0 0 1 16.5376 16.384v360.448a16.4864 16.4864 0 0 1-16.5376 16.384H561.664c-18.9952 0-37.12-8.0896-49.664-22.2208a66.304 66.304 0 0 1-49.6128 22.2208z m0-344.064c25.088 0 37.632-11.264 37.9392-11.5712a16.384 16.384 0 0 1 11.5712-4.7104 17.152 17.152 0 0 1 11.6224 4.5056c0.512 0.512 13.0048 11.776 38.144 11.776h165.376v-16.384h-165.376a17.2544 17.2544 0 0 1-11.52-4.608c-0.512-0.512-13.0048-11.776-38.144-11.776-25.088 0-37.5808 11.264-37.888 11.5712a16.5888 16.5888 0 0 1-11.7248 4.8128h-165.376l-0.0512 16.384z m0 311.296c18.2784 0 33.0752-14.6944 33.0752-32.768v-212.992c0-9.0624 7.424-16.384 16.5376-16.384a16.4864 16.4864 0 0 1 16.5888 16.384v212.992c0 18.0736 14.848 32.768 33.0752 32.768h165.376v-278.528h-165.376c-23.04 0-39.5264-6.656-49.664-12.5952a97.1776 97.1776 0 0 1-49.6128 12.5952h-165.376v278.528z m-16.5376-180.224H346.624a16.4864 16.4864 0 0 1-16.5888-16.384c0-9.0624 7.424-16.384 16.5888-16.384h99.2256a16.4864 16.4864 0 0 1 16.5376 16.384 16.4864 16.4864 0 0 1-16.5376 16.384z m231.5776 0h-99.2256a16.4864 16.4864 0 0 1-16.5376-16.384c0-9.0624 7.3728-16.384 16.5376-16.384h99.2256a16.4864 16.4864 0 0 1 16.5376 16.384 16.4864 16.4864 0 0 1-16.5376 16.384z m-231.5776 65.536H346.624a16.4864 16.4864 0 0 1-16.5888-16.384c0-9.0112 7.424-16.384 16.5888-16.384h99.2256a16.4864 16.4864 0 0 1 16.5376 16.384 16.4864 16.4864 0 0 1-16.5376 16.384z m231.5776 0h-99.2256a16.4864 16.4864 0 0 1-16.5376-16.384c0-9.0112 7.3728-16.384 16.5376-16.384h99.2256a16.4864 16.4864 0 0 1 16.5376 16.384 16.4864 16.4864 0 0 1-16.5376 16.384z m-231.5776 65.536H346.624a16.4864 16.4864 0 0 1-16.5888-16.384c0-9.0112 7.424-16.384 16.5888-16.384h99.2256a16.4864 16.4864 0 0 1 16.5376 16.384 16.4864 16.4864 0 0 1-16.5376 16.384z m231.5776 0h-99.2256a16.4864 16.4864 0 0 1-16.5376-16.384c0-9.0112 7.3728-16.384 16.5376-16.384h99.2256a16.4864 16.4864 0 0 1 16.5376 16.384 16.4864 16.4864 0 0 1-16.5376 16.384z"  horiz-adv-x="1024" />

    
    <glyph glyph-name="appTipoops" unicode="&#59114;" d="M509.602133 675.797333c77.896533 0 151.099733-30.293333 206.199467-85.397333 55.099733-55.099733 85.397333-128.298667 85.397333-206.199467 0-77.9008-30.4-151.099733-85.397333-206.199466-55.0016-55.099733-128.401067-85.4016-206.199467-85.4016-77.9008 0-151.104 30.301867-206.203733 85.4016-55.099733 55.099733-85.397333 128.298667-85.397333 206.199466 0 77.9008 30.2976 151.099733 85.397333 206.199467 55.099733 55.099733 128.298667 85.4016 206.203733 85.4016z m-270.016-226.6624l-0.187733-0.797866a276.48 276.48 0 0 1-3.003733-14.5024c58.525867-46.237867 131.2-95.249067 210.205866-141.636267 82.2784-48.349867 168.768-91.362133 241.5872-120.567467a280.9472 280.9472 0 0 1 11.648 10.3808c-84.714667 33.463467-179.285333 82.9184-246.135466 122.1888-81.0368 47.586133-155.191467 97.847467-214.114134 144.9344zM637.866667 315.733333a32 32 0 1 1 0-64 32 32 0 0 1 0 64zM136.900267 381.098667c26.5088 0 48-21.486933 48-48 0-26.5088-21.4912-48-48-48s-48 21.4912-48 48c0 26.513067 21.4912 48 48 48z m455.197866 220.100266c-54.506667 0-98.696533-44.189867-98.696533-98.7008 0-54.506667 44.189867-98.696533 98.696533-98.696533 54.510933 0 98.7008 44.189867 98.7008 98.696533 0 54.510933-44.189867 98.7008-98.7008 98.7008z m202.103467 94.702934a37.000533 37.000533 0 1 0 0-74.001067 37.000533 37.000533 0 0 0 0 74.001067z m-31.854933-539.810134c81.28-26.619733 133.474133-28.7232 146.948266-6.101333 9.198933 15.466667 7.057067 55.867733-111.3344 152.874667a7.287467 7.287467 0 0 0-0.964266 10.414933 7.569067 7.569067 0 0 0 10.589866 0.9472c40.96-33.454933 71.867733-63.547733 91.869867-89.216 27.0592-34.722133 34.756267-62.395733 22.779733-82.389333-9.088-15.253333-27.592533-22.933333-55.082666-22.933334-2.346667 0-4.808533 0.106667-7.2704 0.213334-26.308267 1.152-69.870933 13.218133-111.368534 26.794666M184.648533 478.084267c-79.005867 69.098667-120.405333 124.970667-101.444266 156.672 12.433067 20.718933 42.666667 27.246933 90.176 19.165866 34.653867-5.905067 78.690133-19.370667 131.042133-39.9872a7.2192 7.2192 0 0 0 4.1088-9.429333c-1.476267-3.729067-5.794133-5.486933-9.5872-4.036267-51.4048 20.305067-94.4896 33.4592-128.093867 39.159467-28.0192 4.7616-63.7312 6.528-74.897066-12.228267-14.327467-24.034133 19.584-72.170667 90.376533-134.122666"  horiz-adv-x="1024" />

    
    <glyph glyph-name="systemFold" unicode="&#59110;" d="M512 896c282.7776 0 512-229.2224 512-512s-229.2224-512-512-512S0 101.2224 0 384 229.2224 896 512 896zM290.6624 511.5392a30.0032 30.0032 0 0 1-42.8544 0 30.976 30.976 0 0 1 0-43.3664l242.7904-245.8624a30.0032 30.0032 0 0 1 42.8032 0l242.7904 245.8624a30.976 30.976 0 0 1 0 43.3664 30.0032 30.0032 0 0 1-42.8544 0L512 287.3856z"  horiz-adv-x="1024" />

    
    <glyph glyph-name="otherPdf" unicode="&#59111;" d="M921.6 591.36V25.6a102.4 102.4 0 0 0-102.4-102.4H204.8a102.4 102.4 0 0 0-102.4 102.4V742.4a102.4 102.4 0 0 0 102.4 102.4h463.36L921.6 591.36zM665.6 844.8l256-256h-204.288A51.712 51.712 0 0 0 665.6 640.512V844.8zM638.9248 339.1488a320.512 320.512 0 0 1-62.2592-7.168 304.5376 304.5376 0 0 0-61.7472 80.3328c17.1008 55.8592 17.8688 94.0032 5.12 112.0256a32.768 32.768 0 0 1-25.4976 13.1072 32.0512 32.0512 0 0 1-30.8736-16.2304c-17.8688-29.8496 7.8848-89.088 19.8656-113.0496a715.264 715.264 0 0 0-52.5312-124.1088c-95.3856-41.216-98.2016-66.2016-98.2016-75.2128a29.3888 29.3888 0 0 1 16.8448-25.7536c4.4032-2.7648 9.5744-4.096 14.7968-3.84 25.4976 0 53.5552 28.0576 84.4288 82.944a684.032 684.032 0 0 0 117.8624 38.0928c20.6848-17.664 46.3872-28.2624 73.4208-30.1568 16.896 0 51.0464 0 51.0464 34.304 0.256 11.5712-6.656 33.6896-52.2752 34.7136zM366.2336 207.872h-3.072c8.704 13.1584 21.1456 23.296 35.6864 29.0816a65.7408 65.7408 0 0 0-32.6144-29.0816z m121.9072 298.496a6.0416 6.0416 0 0 0 4.096 0h3.072c5.2224-16.7936 5.2224-34.7648 0-51.5072a81.8176 81.8176 0 0 0-7.168 51.5072z m51.0464-194.2016a610.816 610.816 0 0 1-67.584-20.0704v2.048h-2.048c10.9568 21.9136 20.8896 45.056 29.7984 67.9936v2.048c11.52-17.6128 24.7296-33.9968 39.5776-48.9472h-2.816l3.072-3.072z m101.9904-13.1072a85.76 85.76 0 0 0-30.1056 6.656c8.3968 1.6896 16.9984 2.3552 25.5488 2.048 19.6096 0 23.7056-4.864 23.7056-7.936a42.496 42.496 0 0 0-19.4048-0.768h0.256z"  horiz-adv-x="1024" />

    
    <glyph glyph-name="systemUnfold" unicode="&#59112;" d="M512 896c282.7776 0 512-229.2224 512-512s-229.2224-512-512-512S0 101.2224 0 384 229.2224 896 512 896z m-20.0704-376.4224l-227.6352-230.5024a29.0304 29.0304 0 0 1 0-40.6528 28.16 28.16 0 0 1 40.192 0L512 458.5472l207.5136-210.1248a28.16 28.16 0 0 1 40.192 0 29.0304 29.0304 0 0 1 0 40.6528l-227.6352 230.5024a28.16 28.16 0 0 1-40.1408 0z"  horiz-adv-x="1024" />

    
    <glyph glyph-name="functionalSuitableitems" unicode="&#59113;" d="M666.368 844.8c2.7136-1.3312 4.4544-1.792 6.5536-2.56l3.4816-1.4336 253.0816-212.5312c1.536-1.8432 2.5088-4.2496 2.9696-6.6048l0.4096-3.2768v-586.752a108.4416 108.4416 0 0 0-100.7104-108.1856l-7.68-0.256h-624.64a108.4416 108.4416 0 0 0-108.1856 100.6592l-0.256 7.7824V736.3584c0 57.2928 44.3904 104.192 100.6592 108.1856L199.8336 844.8h466.5344z m-60.0576-328.5504a151.3472 151.3472 0 0 1-150.272-150.272c0-22.016 5.9904-44.0832 14.0288-64.1024 0-2.048-2.048-2.048-2.048-4.0448L387.9424 133.632c-3.9936-8.0384-1.9968-16.0256 4.0448-22.016 5.9904-6.0416 13.9776-8.0384 22.016-4.0448l68.096 30.0544 14.0288-70.144c2.048-7.9872 8.0384-14.0288 18.0736-16.0256h1.9968c7.9872 0 16.0256 4.0448 18.0224 12.032l66.0992 152.2688h8.0384l66.0992-152.2688c3.9936-7.9872 10.0352-12.032 18.0224-12.032h2.048c7.9872 0 15.9744 8.0384 17.9712 16.0256l14.0288 70.144 68.096-30.0544c8.0384-3.9936 16.0768-2.048 22.0672 3.9936a21.4528 21.4528 0 0 1 8.0384 24.064l-80.128 164.3008-2.048 1.9968c10.0352 20.0192 14.0288 42.0352 14.0288 64.1024a151.3472 151.3472 0 0 1-150.2208 150.272zM496.0768 265.728c18.0736-20.0192 40.0896-34.048 66.1504-42.0352l-38.0928-84.1728-5.9904 32.0512a23.1936 23.1936 0 0 1-10.0352 14.0288 15.0016 15.0016 0 0 1-18.0224 0l-42.0864-18.0224 48.128 98.1504z m220.416 0l48.0768-98.1504-42.0864 18.0224a27.8016 27.8016 0 0 1-18.0224 0 15.0528 15.0528 0 0 1-10.0352-14.0288l-5.9904-32.0512-38.0928 84.1728c26.112 7.9872 48.128 22.016 66.1504 42.0352zM606.3104 478.208c60.0576 0 110.1824-50.0736 110.1824-110.1824a111.1552 111.1552 0 0 0-110.1824-110.1824 109.8752 109.8752 0 0 0-110.2336 110.1824c0 60.1088 50.1248 110.1824 110.2336 110.1824z m-234.4448-92.16H213.6064c-12.032 0-20.0192-7.9872-20.0192-20.0192 0-12.032 7.9872-20.0192 20.0192-20.0192h158.2592a20.0704 20.0704 0 0 1 20.0704 19.968c0 12.0832-8.0384 20.0704-20.0704 20.0704z m60.1088 160.256H213.6064c-12.032 0-20.0192-7.9872-20.0192-19.968 0-12.0832 7.9872-20.0704 20.0192-20.0704h218.368a20.0704 20.0704 0 0 1 20.0192 20.0192c0 12.032-7.9872 20.0704-19.968 20.0704z m240.4352 244.4288v-170.2912h202.3424l-202.3424 170.2912z m-140.288-104.1408H213.6576c-12.032 0-20.0192-8.0384-20.0192-20.0704 0-11.9808 7.9872-19.968 20.0192-19.968h320.512c10.0352 0 18.0736 7.9872 18.0736 19.968 0 12.032-8.0384 20.0704-20.0192 20.0704z"  horiz-adv-x="1024" />

    
    <glyph glyph-name="defaultAvatar" unicode="&#59109;" d="M512 661.333333a192 192 0 1 0 0-384 192 192 0 0 0 0 384z m0-789.333333c-115.84 0-226.346667 6.314667-311.168 87.509333a29.44 29.44 0 0 0-8.576 24.64C214.912 143.744 326.698667 213.333333 512 213.333333c185.344 0 297.066667-69.589333 319.744-229.184 1.258667-8.789333-2.112-18.453333-8.533333-24.618666C738.346667-121.685333 627.84-128 512-128z"  horiz-adv-x="1024" />

    
    <glyph glyph-name="systemRightarrow" unicode="&#59105;" d="M295.0656 780.288a45.056 45.056 0 0 1 0-64.256L631.296 384l-336.2304-332.032a45.056 45.056 0 0 1 0-64.256 46.4384 46.4384 0 0 1 65.0752 0l368.7936 364.1344a45.056 45.056 0 0 1 0 64.3072L360.1408 780.288a46.4384 46.4384 0 0 1-65.024 0z"  horiz-adv-x="1024" />

    
    <glyph glyph-name="systemDotmore" unicode="&#59106;" d="M512 486.4c44.544 0 80.7424-36.6592 80.7424-81.92 0-45.2608-36.1472-81.92-80.7424-81.92-44.544 0-80.7424 36.6592-80.7424 81.92C431.2576 449.7408 467.456 486.4 512 486.4z m328.8576 0C885.4528 486.4 921.6 449.7408 921.6 404.48c0-45.2608-36.1472-81.92-80.7424-81.92-44.544 0-80.6912 36.6592-80.6912 81.92 0 45.2608 36.1472 81.92 80.6912 81.92zM183.1424 486.4c44.544 0 80.6912-36.6592 80.6912-81.92 0-45.2608-36.1472-81.92-80.6912-81.92C138.5472 322.56 102.4 359.2192 102.4 404.48 102.4 449.7408 138.5472 486.4 183.1424 486.4z"  horiz-adv-x="1024" />

    
    <glyph glyph-name="systemClose" unicode="&#59107;" d="M957.44 829.44c20.48-20.48 20.48-53.76 0-74.24L586.24 384l371.2-371.2a52.48 52.48 0 1 0-74.24-74.24L512 309.76 140.8-61.44a52.48 52.48 0 1 0-74.24 74.24l371.2 371.2512L66.56 755.2A52.48 52.48 0 0 0 140.8 829.44L512 458.24 883.2 829.44c20.48 20.48 53.76 20.48 74.24 0z"  horiz-adv-x="1024" />

    
    <glyph glyph-name="systemVersionabout" unicode="&#59108;" d="M512 844.8a460.8 460.8 0 1 0-0.0512-921.6512A460.8 460.8 0 0 0 512 844.8z m0-78.1824A382.6688 382.6688 0 0 1 129.3824 384 382.6688 382.6688 0 0 1 512 1.3824 382.6688 382.6688 0 0 1 894.6176 384 382.6688 382.6688 0 0 1 512 766.6176z m0-300.3392c21.8112 0 39.4752-17.664 39.4752-39.4752v-250.1632l-0.3584-5.376a39.5264 39.5264 0 0 0-78.592 5.376V426.8032l0.3584 5.3248A39.5264 39.5264 0 0 0 512 466.2784z m0 164.5568a49.3568 49.3568 0 1 0 0-98.7136 49.3568 49.3568 0 0 0 0 98.7136z"  horiz-adv-x="1024" />

    
    <glyph glyph-name="functionalCertificate02normal" unicode="&#59096;" d="M602.9312 717.7216c0-124.0576 102.2464-224.4608 228.1984-224.4608v-505.9584c0-63.6928-58.0096-115.3024-129.536-115.3024H140.288C68.7616-128 10.752-76.3904 10.752-12.6976V602.368c0 63.6928 58.0096 115.3536 129.536 115.3536h462.6432z m-48.6912-690.4832H287.6416c-18.432 0-28.672-7.8336-30.464-23.552l-0.3072-5.4784 0.3072-5.4784c1.6384-13.9264 9.8304-21.6576 24.576-23.1936l5.888-0.3072h266.5984c18.432 0 28.6208 7.8336 30.464 23.5008l0.3072 5.4784-0.3072 5.5296c-1.8432 15.6672-12.032 23.5008-30.464 23.5008z m82.0224 125.8496H205.568c-16.9472 0-30.72-13.0048-30.72-28.9792 0-14.4384 11.1104-26.368 25.7536-28.672l4.9664-0.3584h430.6944c16.9984 0 30.7712 13.0048 30.7712 29.0304 0 15.9744-13.7728 28.9792-30.72 28.9792zM428.6464 669.7984c-14.848 0-28.8768-6.4512-38.8096-17.6128l-3.9936-5.0176-47.4624-68.4032a53.0432 53.0432 0 0 0-20.224-17.408l-6.2464-2.56-77.6704-26.112a53.5552 53.5552 0 0 1-33.792-34.816c-4.5056-14.4896-2.9696-30.208 4.096-43.3152l3.3792-5.4784 48.384-69.12c5.2224-7.424 8.4992-16.0768 9.5744-25.088l0.4096-6.912-0.1536-85.0944c0-17.4592 8.0896-33.8944 21.76-44.1344 11.9808-8.96 26.9312-12.288 41.2672-9.2672l6.0928 1.6384 76.9024 26.2144a50.9952 50.9952 0 0 0 26.4192 1.7408l6.5024-1.7408 76.9024-26.2144a51.2 51.2 0 0 1 47.36 7.6288 54.784 54.784 0 0 1 21.4016 37.632l0.3584 6.5024-0.1536 85.0944c0 9.216 2.2016 18.2272 6.4512 26.2144l3.5328 5.7856 48.384 69.12c9.8816 14.08 12.6464 32.256 7.424 48.7424a53.8112 53.8112 0 0 1-27.904 32.512l-5.8368 2.3552-77.6704 26.112a52.4288 52.4288 0 0 0-22.272 14.6432l-4.1984 5.3248-47.4624 68.4032a52.1216 52.1216 0 0 1-42.752 22.6304zM496.128 415.744a67.072 67.072 0 1 0 0-134.144 67.072 67.072 0 0 0 0 134.144z m-66.7648-24.3712a78.9504 78.9504 0 0 1 6.912-94.6176c-9.6768-1.9968-20.224-2.9696-31.5904-2.9696-41.6768 0-72.448 13.1072-91.2896 39.424a33.536 33.536 0 0 0-5.7856 14.336l-0.4096 5.12v11.264l0.3584 4.3008a27.4432 27.4432 0 0 0 22.7328 22.784l4.352 0.3584h94.72z m102.8096-12.1856l-2.048-0.5632-1.6896-1.28-44.4928-44.4416-20.0704 20.0704a6.144 6.144 0 0 1-9.8816-6.8608l1.28-1.7408 24.3712-24.3712 2.048-1.3824a6.144 6.144 0 0 1 4.5568 0l2.048 1.3824 48.7424 48.7424 1.2288 1.7408a6.144 6.144 0 0 1-1.9968 7.68l-1.9456 0.8704-2.1504 0.1536zM404.6848 537.6a60.928 60.928 0 1 0 0-121.9072 60.928 60.928 0 0 0 0 121.9072z m423.6288 358.4a179.2 179.2 0 1 0 0-358.4 179.2 179.2 0 0 0 0 358.4z m70.8608-111.8208L802.816 687.6672c-14.5408 16.384-30.9248 30.976-45.4656 47.36a17.5616 17.5616 0 0 1-25.4464 0 17.6128 17.6128 0 0 1 0-25.4976l60.0064-60.1088c7.2704-7.3216 18.176-7.3216 23.6032 0l109.056 109.2608a17.6128 17.6128 0 0 1 0 25.4976 17.5616 17.5616 0 0 1-25.4464 0z"  horiz-adv-x="1024" />

    
    <glyph glyph-name="functionalCertificate03normal" unicode="&#59097;" d="M602.9312 717.7216c0-124.0576 102.2464-224.4608 228.1984-224.4608v-505.9584c0-63.6928-58.0096-115.3024-129.536-115.3024H140.288C68.7616-128 10.752-76.3904 10.752-12.6976V602.368c0 63.6928 58.0096 115.3536 129.536 115.3536h462.6432z m-48.6912-690.4832H287.6416c-18.432 0-28.672-7.8336-30.464-23.552l-0.3072-5.4784 0.3072-5.4784c1.6384-13.9264 9.8304-21.6576 24.576-23.1936l5.888-0.3072h266.5984c18.432 0 28.6208 7.8336 30.464 23.5008l0.3072 5.4784-0.3072 5.5296c-1.8432 15.6672-12.032 23.5008-30.464 23.5008z m82.0224 125.8496H205.568c-16.9472 0-30.72-13.0048-30.72-28.9792 0-14.4384 11.1104-26.368 25.7536-28.672l4.9664-0.3584h430.6944c16.9984 0 30.7712 13.0048 30.7712 29.0304 0 15.9744-13.7728 28.9792-30.72 28.9792zM428.6464 669.7984c-14.848 0-28.8768-6.4512-38.8096-17.6128l-3.9936-5.0176-47.4624-68.4032a53.0432 53.0432 0 0 0-20.224-17.408l-6.2464-2.56-77.6704-26.112a53.5552 53.5552 0 0 1-33.792-34.816c-4.5056-14.4896-2.9696-30.208 4.096-43.3152l3.3792-5.4784 48.384-69.12c5.2224-7.424 8.4992-16.0768 9.5744-25.088l0.4096-6.912-0.1536-85.0944c0-17.4592 8.0896-33.8944 21.76-44.1344 11.9808-8.96 26.9312-12.288 41.2672-9.2672l6.0928 1.6384 76.9024 26.2144a50.9952 50.9952 0 0 0 26.4192 1.7408l6.5024-1.7408 76.9024-26.2144a51.2 51.2 0 0 1 47.36 7.6288 54.784 54.784 0 0 1 21.4016 37.632l0.3584 6.5024-0.1536 85.0944c0 9.216 2.2016 18.2272 6.4512 26.2144l3.5328 5.7856 48.384 69.12c9.8816 14.08 12.6464 32.256 7.424 48.7424a53.8112 53.8112 0 0 1-27.904 32.512l-5.8368 2.3552-77.6704 26.112a52.4288 52.4288 0 0 0-22.272 14.6432l-4.1984 5.3248-47.4624 68.4032a52.1216 52.1216 0 0 1-42.752 22.6304z m62.464-225.1776l2.56-0.6656a8.5504 8.5504 0 0 0 3.8912-3.4816l1.024-2.4576 8.0384-34.816a8.5504 8.5504 0 0 0-1.9456-7.6288l-2.0992-1.7408-90.0096-51.9168c-6.7072-3.8912-5.0176-13.4656 1.536-15.5136l2.7136-0.4096 2.304 0.256 2.048 0.8704 80.896 46.7456a8.5504 8.5504 0 0 0 11.5712-3.072l1.024-2.4064 8.192-35.84c0.768-3.072 3.072-5.4272 6.0416-6.2464l2.304-0.3072h9.5232c8.9088 0 16.896-6.5024 17.7664-15.36a17.1008 17.1008 0 0 0-13.312-18.432l-3.6352-0.3584H319.6416a17.1008 17.1008 0 0 0-16.9472 18.7904 17.408 17.408 0 0 0 14.0288 14.9504l3.7376 0.4096h9.4208a8.5504 8.5504 0 0 1 7.5264 4.4032l0.8192 2.2016 5.9392 25.9072a8.4992 8.4992 0 0 0 2.2016 4.0448l1.8432 1.4336 137.728 79.5136 2.56 0.9728 2.56 0.1536z m-16.128 69.632l2.56-0.6656a8.5504 8.5504 0 0 0 3.9424-3.4304l1.024-2.4576 8.0384-34.8672a8.5504 8.5504 0 0 0-1.9456-7.5776l-2.0992-1.7408-119.296-68.864a8.5504 8.5504 0 0 0-12.7488 6.656l0.2048 2.6624 10.5472 45.568a8.5504 8.5504 0 0 0 2.2016 4.096l1.8432 1.3824 100.6592 58.112 2.4576 1.024 2.6112 0.1024z m-15.36 33.5872a16.896 16.896 0 0 0 6.912-1.4848c5.376-2.4064 6.3488-9.216 2.7648-13.312l-2.2016-1.792-78.848-45.568a8.5504 8.5504 0 0 0-12.8 6.7072l0.256 2.6624 9.1136 39.5776a17.0496 17.0496 0 0 0 12.8 12.8L401.408 547.84h58.1632z m368.64 348.16a179.2 179.2 0 1 0 0-358.4 179.2 179.2 0 0 0 0 358.4z m70.912-111.8208L802.816 687.6672c-14.5408 16.384-30.9248 30.976-45.4656 47.36a17.5616 17.5616 0 0 1-25.4464 0 17.6128 17.6128 0 0 1 0-25.4976l60.0064-60.1088c7.2704-7.3216 18.176-7.3216 23.6032 0l109.056 109.2608a17.6128 17.6128 0 0 1 0 25.4976 17.5616 17.5616 0 0 1-25.4464 0z"  horiz-adv-x="1024" />

    
    <glyph glyph-name="functionalCertificate03approval" unicode="&#59098;" d="M602.9312 717.7216c0-124.0576 102.2464-224.4608 228.1984-224.4608v-505.9584c0-63.6928-58.0096-115.3024-129.536-115.3024H140.288C68.7616-128 10.752-76.3904 10.752-12.6976V602.368c0 63.6928 58.0096 115.3536 129.536 115.3536h462.6432z m-48.6912-690.4832H287.6416c-18.432 0-28.672-7.8336-30.464-23.552l-0.3072-5.4784 0.3072-5.4784c1.6384-13.9264 9.8304-21.6576 24.576-23.1936l5.888-0.3072h266.5984c18.432 0 28.6208 7.8336 30.464 23.5008l0.3072 5.4784-0.3072 5.5296c-1.8432 15.6672-12.032 23.5008-30.464 23.5008z m82.0224 125.8496H205.568c-16.9472 0-30.72-13.0048-30.72-28.9792 0-14.4384 11.1104-26.368 25.7536-28.672l4.9664-0.3584h430.6944c16.9984 0 30.7712 13.0048 30.7712 29.0304 0 15.9744-13.7728 28.9792-30.72 28.9792zM428.6464 669.7984c-14.848 0-28.8768-6.4512-38.8096-17.6128l-3.9936-5.0176-47.4624-68.4032a53.0432 53.0432 0 0 0-20.224-17.408l-6.2464-2.56-77.6704-26.112a53.5552 53.5552 0 0 1-33.792-34.816c-4.5056-14.4896-2.9696-30.208 4.096-43.3152l3.3792-5.4784 48.384-69.12c5.2224-7.424 8.4992-16.0768 9.5744-25.088l0.4096-6.912-0.1536-85.0944c0-17.4592 8.0896-33.8944 21.76-44.1344 11.9808-8.96 26.9312-12.288 41.2672-9.2672l6.0928 1.6384 76.9024 26.2144a50.9952 50.9952 0 0 0 26.4192 1.7408l6.5024-1.7408 76.9024-26.2144a51.2 51.2 0 0 1 47.36 7.6288 54.784 54.784 0 0 1 21.4016 37.632l0.3584 6.5024-0.1536 85.0944c0 9.216 2.2016 18.2272 6.4512 26.2144l3.5328 5.7856 48.384 69.12c9.8816 14.08 12.6464 32.256 7.424 48.7424a53.8112 53.8112 0 0 1-27.904 32.512l-5.8368 2.3552-77.6704 26.112a52.4288 52.4288 0 0 0-22.272 14.6432l-4.1984 5.3248-47.4624 68.4032a52.1216 52.1216 0 0 1-42.752 22.6304z m62.464-225.1776l2.56-0.6656a8.5504 8.5504 0 0 0 3.8912-3.4816l1.024-2.4576 8.0384-34.816a8.5504 8.5504 0 0 0-1.9456-7.6288l-2.0992-1.7408-90.0096-51.9168c-6.7072-3.8912-5.0176-13.4656 1.536-15.5136l2.7136-0.4096 2.304 0.256 2.048 0.8704 80.896 46.7456a8.5504 8.5504 0 0 0 11.5712-3.072l1.024-2.4064 8.192-35.84c0.768-3.072 3.072-5.4272 6.0416-6.2464l2.304-0.3072h9.5232c8.9088 0 16.896-6.5024 17.7664-15.36a17.1008 17.1008 0 0 0-13.312-18.432l-3.6352-0.3584H319.6416a17.1008 17.1008 0 0 0-16.9472 18.7904 17.408 17.408 0 0 0 14.0288 14.9504l3.7376 0.4096h9.4208a8.5504 8.5504 0 0 1 7.5264 4.4032l0.8192 2.2016 5.9392 25.9072a8.4992 8.4992 0 0 0 2.2016 4.0448l1.8432 1.4336 137.728 79.5136 2.56 0.9728 2.56 0.1536z m-16.128 69.632l2.56-0.6656a8.5504 8.5504 0 0 0 3.9424-3.4304l1.024-2.4576 8.0384-34.8672a8.5504 8.5504 0 0 0-1.9456-7.5776l-2.0992-1.7408-119.296-68.864a8.5504 8.5504 0 0 0-12.7488 6.656l0.2048 2.6624 10.5472 45.568a8.5504 8.5504 0 0 0 2.2016 4.096l1.8432 1.3824 100.6592 58.112 2.4576 1.024 2.6112 0.1024z m-15.36 33.5872a16.896 16.896 0 0 0 6.912-1.4848c5.376-2.4064 6.3488-9.216 2.7648-13.312l-2.2016-1.792-78.848-45.568a8.5504 8.5504 0 0 0-12.8 6.7072l0.256 2.6624 9.1136 39.5776a17.0496 17.0496 0 0 0 12.8 12.8L401.408 547.84h58.1632z m368.64 348.16a179.2 179.2 0 1 0 0-358.4 179.2 179.2 0 0 0 0 358.4z m0.0512-227.0208a27.0336 27.0336 0 0 1-26.624-23.8592l-0.256-3.4304 0.2048-3.4304a27.0336 27.0336 0 0 1 26.6752-23.8592 27.0336 27.0336 0 0 1 26.6752 23.8592l0.2048 3.4304L855.04 645.12a27.0336 27.0336 0 0 1-26.624 23.8592z m0 75.1104a27.0336 27.0336 0 0 1-26.624-23.8592l-0.256-3.4304 0.2048-3.4304a27.0336 27.0336 0 0 1 26.6752-23.8592 27.0336 27.0336 0 0 1 26.6752 23.8592l0.2048 3.4304-0.2048 3.4304a27.0336 27.0336 0 0 1-26.624 23.8592z m0 75.1104a27.0336 27.0336 0 0 1-26.624-23.8592l-0.256-3.4304 0.2048-3.4304a27.0336 27.0336 0 0 1 26.6752-23.8592 27.0336 27.0336 0 0 1 26.6752 23.8592l0.2048 3.4304-0.2048 3.4304a27.0336 27.0336 0 0 1-26.624 23.8592z"  horiz-adv-x="1024" />

    
    <glyph glyph-name="functionalCertificate03delayed" unicode="&#59099;" d="M602.9312 717.7216c0-124.0576 102.2464-224.4608 228.1984-224.4608v-505.9584c0-63.6928-58.0096-115.3024-129.536-115.3024H140.288C68.7616-128 10.752-76.3904 10.752-12.6976V602.368c0 63.6928 58.0096 115.3536 129.536 115.3536h462.6432z m-48.6912-690.4832H287.6416c-18.432 0-28.672-7.8336-30.464-23.552l-0.3072-5.4784 0.3072-5.4784c1.6384-13.9264 9.8304-21.6576 24.576-23.1936l5.888-0.3072h266.5984c18.432 0 28.6208 7.8336 30.464 23.5008l0.3072 5.4784-0.3072 5.5296c-1.8432 15.6672-12.032 23.5008-30.464 23.5008z m82.0224 125.8496H205.568c-16.9472 0-30.72-13.0048-30.72-28.9792 0-14.4384 11.1104-26.368 25.7536-28.672l4.9664-0.3584h430.6944c16.9984 0 30.7712 13.0048 30.7712 29.0304 0 15.9744-13.7728 28.9792-30.72 28.9792zM428.6464 669.7984c-14.848 0-28.8768-6.4512-38.8096-17.6128l-3.9936-5.0176-47.4624-68.4032a53.0432 53.0432 0 0 0-20.224-17.408l-6.2464-2.56-77.6704-26.112a53.5552 53.5552 0 0 1-33.792-34.816c-4.5056-14.4896-2.9696-30.208 4.096-43.3152l3.3792-5.4784 48.384-69.12c5.2224-7.424 8.4992-16.0768 9.5744-25.088l0.4096-6.912-0.1536-85.0944c0-17.4592 8.0896-33.8944 21.76-44.1344 11.9808-8.96 26.9312-12.288 41.2672-9.2672l6.0928 1.6384 76.9024 26.2144a50.9952 50.9952 0 0 0 26.4192 1.7408l6.5024-1.7408 76.9024-26.2144a51.2 51.2 0 0 1 47.36 7.6288 54.784 54.784 0 0 1 21.4016 37.632l0.3584 6.5024-0.1536 85.0944c0 9.216 2.2016 18.2272 6.4512 26.2144l3.5328 5.7856 48.384 69.12c9.8816 14.08 12.6464 32.256 7.424 48.7424a53.8112 53.8112 0 0 1-27.904 32.512l-5.8368 2.3552-77.6704 26.112a52.4288 52.4288 0 0 0-22.272 14.6432l-4.1984 5.3248-47.4624 68.4032a52.1216 52.1216 0 0 1-42.752 22.6304z m62.464-225.1776l2.56-0.6656a8.5504 8.5504 0 0 0 3.8912-3.4816l1.024-2.4576 8.0384-34.816a8.5504 8.5504 0 0 0-1.9456-7.6288l-2.0992-1.7408-90.0096-51.9168c-6.7072-3.8912-5.0176-13.4656 1.536-15.5136l2.7136-0.4096 2.304 0.256 2.048 0.8704 80.896 46.7456a8.5504 8.5504 0 0 0 11.5712-3.072l1.024-2.4064 8.192-35.84c0.768-3.072 3.072-5.4272 6.0416-6.2464l2.304-0.3072h9.5232c8.9088 0 16.896-6.5024 17.7664-15.36a17.1008 17.1008 0 0 0-13.312-18.432l-3.6352-0.3584H319.6416a17.1008 17.1008 0 0 0-16.9472 18.7904 17.408 17.408 0 0 0 14.0288 14.9504l3.7376 0.4096h9.4208a8.5504 8.5504 0 0 1 7.5264 4.4032l0.8192 2.2016 5.9392 25.9072a8.4992 8.4992 0 0 0 2.2016 4.0448l1.8432 1.4336 137.728 79.5136 2.56 0.9728 2.56 0.1536z m-16.128 69.632l2.56-0.6656a8.5504 8.5504 0 0 0 3.9424-3.4304l1.024-2.4576 8.0384-34.8672a8.5504 8.5504 0 0 0-1.9456-7.5776l-2.0992-1.7408-119.296-68.864a8.5504 8.5504 0 0 0-12.7488 6.656l0.2048 2.6624 10.5472 45.568a8.5504 8.5504 0 0 0 2.2016 4.096l1.8432 1.3824 100.6592 58.112 2.4576 1.024 2.6112 0.1024z m-15.36 33.5872a16.896 16.896 0 0 0 6.912-1.4848c5.376-2.4064 6.3488-9.216 2.7648-13.312l-2.2016-1.792-78.848-45.568a8.5504 8.5504 0 0 0-12.8 6.7072l0.256 2.6624 9.1136 39.5776a17.0496 17.0496 0 0 0 12.8 12.8L401.408 547.84h58.1632z m368.64 348.16a179.2 179.2 0 1 0 0-358.4 179.2 179.2 0 0 0 0 358.4z m0.1536-240.3328c-14.1312 0-25.5488-11.52-25.5488-25.7536a25.6 25.6 0 0 1 25.6-25.7536c14.08 0 25.5488 11.52 25.5488 25.7536a25.7024 25.7024 0 0 1-25.6 25.7536z m0 173.7728c-14.1312 0-25.6-11.52-25.6-25.7536v-110.08c0-14.2848 11.4688-25.8048 25.6-25.8048s25.6 11.5712 25.6 25.7536v110.08a25.7024 25.7024 0 0 1-25.6 25.8048z"  horiz-adv-x="1024" />

    
    <glyph glyph-name="functionalCertificate01normal" unicode="&#59100;" d="M602.9312 717.7216c0-124.0576 102.2464-224.4608 228.1984-224.4608v-505.9584c0-63.6928-58.0096-115.3024-129.536-115.3024H140.288C68.7616-128 10.752-76.3904 10.752-12.6976V602.368c0 63.6928 58.0096 115.3536 129.536 115.3536h462.6432z m-48.6912-690.4832H287.6416c-18.432 0-28.672-7.8336-30.464-23.552l-0.3072-5.4784 0.3072-5.4784c1.6384-13.9264 9.8304-21.6576 24.576-23.1936l5.888-0.3072h266.5984c18.432 0 28.6208 7.8336 30.464 23.5008l0.3072 5.4784-0.3072 5.5296c-1.8432 15.6672-12.032 23.5008-30.464 23.5008z m82.0224 125.8496H205.568c-16.9472 0-30.72-13.0048-30.72-28.9792 0-14.4384 11.1104-26.368 25.7536-28.672l4.9664-0.3584h430.6944c16.9984 0 30.7712 13.0048 30.7712 29.0304 0 15.9744-13.7728 28.9792-30.72 28.9792zM428.6464 669.7984c-14.848 0-28.8768-6.4512-38.8096-17.6128l-3.9936-5.0176-47.4624-68.4032a53.0432 53.0432 0 0 0-20.224-17.408l-6.2464-2.56-77.6704-26.112a53.5552 53.5552 0 0 1-33.792-34.816c-4.5056-14.4896-2.9696-30.208 4.096-43.3152l3.3792-5.4784 48.384-69.12c5.2224-7.424 8.4992-16.0768 9.5744-25.088l0.4096-6.912-0.1536-85.0944c0-17.4592 8.0896-33.8944 21.76-44.1344 11.9808-8.96 26.9312-12.288 41.2672-9.2672l6.0928 1.6384 76.9024 26.2144a50.9952 50.9952 0 0 0 26.4192 1.7408l6.5024-1.7408 76.9024-26.2144a51.2 51.2 0 0 1 47.36 7.6288 54.784 54.784 0 0 1 21.4016 37.632l0.3584 6.5024-0.1536 85.0944c0 9.216 2.2016 18.2272 6.4512 26.2144l3.5328 5.7856 48.384 69.12c9.8816 14.08 12.6464 32.256 7.424 48.7424a53.8112 53.8112 0 0 1-27.904 32.512l-5.8368 2.3552-77.6704 26.112a52.4288 52.4288 0 0 0-22.272 14.6432l-4.1984 5.3248-47.4624 68.4032a52.1216 52.1216 0 0 1-42.752 22.6304z m-18.8928-114.3808l10.7008-0.6656a158.4128 158.4128 0 0 0 140.6976-177.3568l-1.8944-11.776-3.7888-1.1776-12.544-2.304c-1.4848-0.9728-10.9568-5.9904-19.968 19.968-9.1136 25.9584 15.872 35.1232 19.456 36.2496l0.512 0.1536v8.3968l-0.9216 1.8432c-3.072 3.3792-13.4656 5.2224-10.9056 11.776a36.2496 36.2496 0 0 0 5.7344 9.6768c-2.56 19.2-24.6784 42.3936-28.3136 46.08l-0.512 0.512-12.6464-7.3728-1.8432-0.8704-1.8944-0.7168a45.2608 45.2608 0 0 1-17.8176-11.4176 7.3728 7.3728 0 0 0-10.9568 0.256l-2.4576 3.4304-1.8432 3.84-5.1712 13.1072-1.536 2.7648-2.1504 2.3552-11.3152 9.9328-0.256 0.1536-0.6144-0.0512-0.256-0.256-4.8128-6.2464-1.1264-1.024a5.12 5.12 0 0 0-5.7856-0.1024l-1.1264 1.024-4.864 6.2976-1.536 1.4336-1.8432 0.9216-2.3552 0.768-2.7648 0.512a10.1888 10.1888 0 0 1-8.96-5.3248c-2.3552-4.1472-5.376-3.84-7.8336-3.072a7.68 7.68 0 0 1-4.8128 0l-2.048-1.2288-2.8672-5.4784-1.6384-4.096a21.504 21.504 0 0 1-0.8192-5.7344l0.2048-2.9184 1.6384-2.1504 9.9328-5.5808 2.56-1.024a12.1344 12.1344 0 0 1 13.9264 5.6832l1.024 2.56 4.608 5.12 5.2736 0.256 1.792-1.3824 2.1504-0.6656 2.304 0.1024 5.4272 1.1776 1.536 0.1536 1.5872-0.3584 4.5568-1.5872 1.6384-0.9216 1.28-1.3824 13.1072-19.456 1.024-2.304a6.8608 6.8608 0 0 0-1.792-6.656 26.2144 26.2144 0 0 0-23.3984-6.7072 10.24 10.24 0 0 1-7.8336-1.6896c-6.0416-4.1984-8.2432-8.6016-8.2432-8.6016a38.5536 38.5536 0 0 0-1.024-4.096c-3.584-10.8544-15.3088-15.9744-26.5216-13.9776-7.68 1.3824-14.08-3.4816-15.872-5.0176l-0.4608-0.4608-1.28-2.3552c-2.3552-6.4512 2.9184-13.9776 10.24-12.6464a32.8192 32.8192 0 0 0 8.5504 0.3584 9.8816 9.8816 0 0 0 4.7616-1.792l1.8944-1.6896 7.9872-9.472 2.9184-2.6624a18.1248 18.1248 0 0 1 14.848-2.56 23.9104 23.9104 0 0 0 12.3904-0.3584l3.8912-1.536 27.9552-15.36 1.024-3.072a13.9264 13.9264 0 0 1 6.5536-6.656l3.072-1.024 21.4016-4.6592-0.3584-4.9664a31.744 31.744 0 0 0-3.1232-9.5232l-2.7648-4.4544-1.792-3.072-1.2288-3.3792-2.9184-11.1616-0.8192-1.6384a4.608 4.608 0 0 0-3.2256-1.6896 13.6704 13.6704 0 0 1-10.0864-5.8368l-1.4336-2.7136-1.024-2.56-1.0752-2.2016-1.536-2.048-1.7408-1.8432-29.8496-25.7536-2.048-2.048a30.4128 30.4128 0 0 1-3.2256-4.864c-3.9936-7.424-11.9808-1.6896-13.9264-0.1024l-0.4096 0.3584 3.9936 47.36 0.512 5.2736a26.7776 26.7776 0 0 1-3.584 15.2064l-2.5088 3.3792-10.496 11.9808-1.8944 2.7648a14.2336 14.2336 0 0 0-1.536 6.4512c0 10.24-4.864 19.8144-12.8 25.9072l-4.3008 2.7648-19.2512 10.4448-3.1232 1.8944-3.0208 2.1504-38.0416 29.7984-2.8672 2.7648a22.016 22.016 0 0 0-5.12 10.496l-0.3584 3.9936v13.6704l-0.4096 4.4032a25.4464 25.4464 0 0 1-2.9696 8.2432l-2.56 3.6352-8.4992 10.1888-11.6736 14.336 6.656 7.2192a157.0816 157.0816 0 0 0 107.008 47.36h10.496zM828.3136 896a179.2 179.2 0 1 0 0-358.4 179.2 179.2 0 0 0 0 358.4z m70.8608-111.8208L802.816 687.6672c-14.5408 16.384-30.9248 30.976-45.4656 47.36a17.5616 17.5616 0 0 1-25.4464 0 17.6128 17.6128 0 0 1 0-25.4976l60.0064-60.1088c7.2704-7.3216 18.176-7.3216 23.6032 0l109.056 109.2608a17.6128 17.6128 0 0 1 0 25.4976 17.5616 17.5616 0 0 1-25.4464 0z"  horiz-adv-x="1024" />

    
    <glyph glyph-name="functionalCertificate01approval" unicode="&#59101;" d="M602.9312 717.7216c0-124.0576 102.2464-224.4608 228.1984-224.4608v-505.9584c0-63.6928-58.0096-115.3024-129.536-115.3024H140.288C68.7616-128 10.752-76.3904 10.752-12.6976V602.368c0 63.6928 58.0096 115.3536 129.536 115.3536h462.6432z m-48.6912-690.4832H287.6416c-18.432 0-28.672-7.8336-30.464-23.552l-0.3072-5.4784 0.3072-5.4784c1.6384-13.9264 9.8304-21.6576 24.576-23.1936l5.888-0.3072h266.5984c18.432 0 28.6208 7.8336 30.464 23.5008l0.3072 5.4784-0.3072 5.5296c-1.8432 15.6672-12.032 23.5008-30.464 23.5008z m82.0224 125.8496H205.568c-16.9472 0-30.72-13.0048-30.72-28.9792 0-14.4384 11.1104-26.368 25.7536-28.672l4.9664-0.3584h430.6944c16.9984 0 30.7712 13.0048 30.7712 29.0304 0 15.9744-13.7728 28.9792-30.72 28.9792zM428.6464 669.7984c-14.848 0-28.8768-6.4512-38.8096-17.6128l-3.9936-5.0176-47.4624-68.4032a53.0432 53.0432 0 0 0-20.224-17.408l-6.2464-2.56-77.6704-26.112a53.5552 53.5552 0 0 1-33.792-34.816c-4.5056-14.4896-2.9696-30.208 4.096-43.3152l3.3792-5.4784 48.384-69.12c5.2224-7.424 8.4992-16.0768 9.5744-25.088l0.4096-6.912-0.1536-85.0944c0-17.4592 8.0896-33.8944 21.76-44.1344 11.9808-8.96 26.9312-12.288 41.2672-9.2672l6.0928 1.6384 76.9024 26.2144a50.9952 50.9952 0 0 0 26.4192 1.7408l6.5024-1.7408 76.9024-26.2144a51.2 51.2 0 0 1 47.36 7.6288 54.784 54.784 0 0 1 21.4016 37.632l0.3584 6.5024-0.1536 85.0944c0 9.216 2.2016 18.2272 6.4512 26.2144l3.5328 5.7856 48.384 69.12c9.8816 14.08 12.6464 32.256 7.424 48.7424a53.8112 53.8112 0 0 1-27.904 32.512l-5.8368 2.3552-77.6704 26.112a52.4288 52.4288 0 0 0-22.272 14.6432l-4.1984 5.3248-47.4624 68.4032a52.1216 52.1216 0 0 1-42.752 22.6304z m-18.8928-114.3808l10.7008-0.6656a158.4128 158.4128 0 0 0 140.6976-177.3568l-1.8944-11.776-3.7888-1.1776-12.544-2.304c-1.4848-0.9728-10.9568-5.9904-19.968 19.968-9.1136 25.9584 15.872 35.1232 19.456 36.2496l0.512 0.1536v8.3968l-0.9216 1.8432c-3.072 3.3792-13.4656 5.2224-10.9056 11.776a36.2496 36.2496 0 0 0 5.7344 9.6768c-2.56 19.2-24.6784 42.3936-28.3136 46.08l-0.512 0.512-12.6464-7.3728-1.8432-0.8704-1.8944-0.7168a45.2608 45.2608 0 0 1-17.8176-11.4176 7.3728 7.3728 0 0 0-10.9568 0.256l-2.4576 3.4304-1.8432 3.84-5.1712 13.1072-1.536 2.7648-2.1504 2.3552-11.3152 9.9328-0.256 0.1536-0.6144-0.0512-0.256-0.256-4.8128-6.2464-1.1264-1.024a5.12 5.12 0 0 0-5.7856-0.1024l-1.1264 1.024-4.864 6.2976-1.536 1.4336-1.8432 0.9216-2.3552 0.768-2.7648 0.512a10.1888 10.1888 0 0 1-8.96-5.3248c-2.3552-4.1472-5.376-3.84-7.8336-3.072a7.68 7.68 0 0 1-4.8128 0l-2.048-1.2288-2.8672-5.4784-1.6384-4.096a21.504 21.504 0 0 1-0.8192-5.7344l0.2048-2.9184 1.6384-2.1504 9.9328-5.5808 2.56-1.024a12.1344 12.1344 0 0 1 13.9264 5.6832l1.024 2.56 4.608 5.12 5.2736 0.256 1.792-1.3824 2.1504-0.6656 2.304 0.1024 5.4272 1.1776 1.536 0.1536 1.5872-0.3584 4.5568-1.5872 1.6384-0.9216 1.28-1.3824 13.1072-19.456 1.024-2.304a6.8608 6.8608 0 0 0-1.792-6.656 26.2144 26.2144 0 0 0-23.3984-6.7072 10.24 10.24 0 0 1-7.8336-1.6896c-6.0416-4.1984-8.2432-8.6016-8.2432-8.6016a38.5536 38.5536 0 0 0-1.024-4.096c-3.584-10.8544-15.3088-15.9744-26.5216-13.9776-7.68 1.3824-14.08-3.4816-15.872-5.0176l-0.4608-0.4608-1.28-2.3552c-2.3552-6.4512 2.9184-13.9776 10.24-12.6464a32.8192 32.8192 0 0 0 8.5504 0.3584 9.8816 9.8816 0 0 0 4.7616-1.792l1.8944-1.6896 7.9872-9.472 2.9184-2.6624a18.1248 18.1248 0 0 1 14.848-2.56 23.9104 23.9104 0 0 0 12.3904-0.3584l3.8912-1.536 27.9552-15.36 1.024-3.072a13.9264 13.9264 0 0 1 6.5536-6.656l3.072-1.024 21.4016-4.6592-0.3584-4.9664a31.744 31.744 0 0 0-3.1232-9.5232l-2.7648-4.4544-1.792-3.072-1.2288-3.3792-2.9184-11.1616-0.8192-1.6384a4.608 4.608 0 0 0-3.2256-1.6896 13.6704 13.6704 0 0 1-10.0864-5.8368l-1.4336-2.7136-1.024-2.56-1.0752-2.2016-1.536-2.048-1.7408-1.8432-29.8496-25.7536-2.048-2.048a30.4128 30.4128 0 0 1-3.2256-4.864c-3.9936-7.424-11.9808-1.6896-13.9264-0.1024l-0.4096 0.3584 3.9936 47.36 0.512 5.2736a26.7776 26.7776 0 0 1-3.584 15.2064l-2.5088 3.3792-10.496 11.9808-1.8944 2.7648a14.2336 14.2336 0 0 0-1.536 6.4512c0 10.24-4.864 19.8144-12.8 25.9072l-4.3008 2.7648-19.2512 10.4448-3.1232 1.8944-3.0208 2.1504-38.0416 29.7984-2.8672 2.7648a22.016 22.016 0 0 0-5.12 10.496l-0.3584 3.9936v13.6704l-0.4096 4.4032a25.4464 25.4464 0 0 1-2.9696 8.2432l-2.56 3.6352-8.4992 10.1888-11.6736 14.336 6.656 7.2192a157.0816 157.0816 0 0 0 107.008 47.36h10.496zM828.3136 896a179.2 179.2 0 1 0 0-358.4 179.2 179.2 0 0 0 0 358.4z m0-227.0208a27.0336 27.0336 0 0 1-26.624-23.8592l-0.256-3.4304 0.2048-3.4304a27.0336 27.0336 0 0 1 26.6752-23.8592 27.0336 27.0336 0 0 1 26.6752 23.8592l0.2048 3.4304L855.04 645.12a27.0336 27.0336 0 0 1-26.624 23.8592z m0 75.1104a27.0336 27.0336 0 0 1-26.624-23.8592l-0.256-3.4304 0.2048-3.4304a27.0336 27.0336 0 0 1 26.6752-23.8592 27.0336 27.0336 0 0 1 26.6752 23.8592l0.2048 3.4304-0.2048 3.4304a27.0336 27.0336 0 0 1-26.624 23.8592z m0 75.1104a27.0336 27.0336 0 0 1-26.624-23.8592l-0.256-3.4304 0.2048-3.4304a27.0336 27.0336 0 0 1 26.6752-23.8592 27.0336 27.0336 0 0 1 26.6752 23.8592l0.2048 3.4304-0.2048 3.4304a27.0336 27.0336 0 0 1-26.624 23.8592z"  horiz-adv-x="1024" />

    
    <glyph glyph-name="functionalCertificate02delayed" unicode="&#59102;" d="M602.9312 717.7216c0-124.0576 102.2464-224.4608 228.1984-224.4608v-505.9584c0-63.6928-58.0096-115.3024-129.536-115.3024H140.288C68.7616-128 10.752-76.3904 10.752-12.6976V602.368c0 63.6928 58.0096 115.3536 129.536 115.3536h462.6432z m-48.6912-690.4832H287.6416c-18.432 0-28.672-7.8336-30.464-23.552l-0.3072-5.4784 0.3072-5.4784c1.6384-13.9264 9.8304-21.6576 24.576-23.1936l5.888-0.3072h266.5984c18.432 0 28.6208 7.8336 30.464 23.5008l0.3072 5.4784-0.3072 5.5296c-1.8432 15.6672-12.032 23.5008-30.464 23.5008z m82.0224 125.8496H205.568c-16.9472 0-30.72-13.0048-30.72-28.9792 0-14.4384 11.1104-26.368 25.7536-28.672l4.9664-0.3584h430.6944c16.9984 0 30.7712 13.0048 30.7712 29.0304 0 15.9744-13.7728 28.9792-30.72 28.9792zM428.6464 669.7984c-14.848 0-28.8768-6.4512-38.8096-17.6128l-3.9936-5.0176-47.4624-68.4032a53.0432 53.0432 0 0 0-20.224-17.408l-6.2464-2.56-77.6704-26.112a53.5552 53.5552 0 0 1-33.792-34.816c-4.5056-14.4896-2.9696-30.208 4.096-43.3152l3.3792-5.4784 48.384-69.12c5.2224-7.424 8.4992-16.0768 9.5744-25.088l0.4096-6.912-0.1536-85.0944c0-17.4592 8.0896-33.8944 21.76-44.1344 11.9808-8.96 26.9312-12.288 41.2672-9.2672l6.0928 1.6384 76.9024 26.2144a50.9952 50.9952 0 0 0 26.4192 1.7408l6.5024-1.7408 76.9024-26.2144a51.2 51.2 0 0 1 47.36 7.6288 54.784 54.784 0 0 1 21.4016 37.632l0.3584 6.5024-0.1536 85.0944c0 9.216 2.2016 18.2272 6.4512 26.2144l3.5328 5.7856 48.384 69.12c9.8816 14.08 12.6464 32.256 7.424 48.7424a53.8112 53.8112 0 0 1-27.904 32.512l-5.8368 2.3552-77.6704 26.112a52.4288 52.4288 0 0 0-22.272 14.6432l-4.1984 5.3248-47.4624 68.4032a52.1216 52.1216 0 0 1-42.752 22.6304zM496.128 415.744a67.072 67.072 0 1 0 0-134.144 67.072 67.072 0 0 0 0 134.144z m-66.7648-24.3712a78.9504 78.9504 0 0 1 6.912-94.6176c-9.6768-1.9968-20.224-2.9696-31.5904-2.9696-41.6768 0-72.448 13.1072-91.2896 39.424a33.536 33.536 0 0 0-5.7856 14.336l-0.4096 5.12v11.264l0.3584 4.3008a27.4432 27.4432 0 0 0 22.7328 22.784l4.352 0.3584h94.72z m102.8096-12.1856l-2.048-0.5632-1.6896-1.28-44.4928-44.4416-20.0704 20.0704a6.144 6.144 0 0 1-9.8816-6.8608l1.28-1.7408 24.3712-24.3712 2.048-1.3824a6.144 6.144 0 0 1 4.5568 0l2.048 1.3824 48.7424 48.7424 1.2288 1.7408a6.144 6.144 0 0 1-1.9968 7.68l-1.9456 0.8704-2.1504 0.1536zM404.6848 537.6a60.928 60.928 0 1 0 0-121.9072 60.928 60.928 0 0 0 0 121.9072z m423.6288 358.4a179.2 179.2 0 1 0 0-358.4 179.2 179.2 0 0 0 0 358.4z m0.1024-240.3328c-14.1312 0-25.5488-11.52-25.5488-25.7536a25.6 25.6 0 0 1 25.6-25.7536c14.08 0 25.5488 11.52 25.5488 25.7536a25.7024 25.7024 0 0 1-25.6 25.7536z m0 173.7728c-14.1312 0-25.6-11.52-25.6-25.7536v-110.08c0-14.2848 11.4688-25.8048 25.6-25.8048s25.6 11.5712 25.6 25.7536v110.08a25.7024 25.7024 0 0 1-25.6 25.8048z"  horiz-adv-x="1024" />

    
    <glyph glyph-name="functionalCertificate01delayed" unicode="&#59103;" d="M602.9312 717.7216c0-124.0576 102.2464-224.4608 228.1984-224.4608v-505.9584c0-63.6928-58.0096-115.3024-129.536-115.3024H140.288C68.7616-128 10.752-76.3904 10.752-12.6976V602.368c0 63.6928 58.0096 115.3536 129.536 115.3536h462.6432z m-48.6912-690.4832H287.6416c-18.432 0-28.672-7.8336-30.464-23.552l-0.3072-5.4784 0.3072-5.4784c1.6384-13.9264 9.8304-21.6576 24.576-23.1936l5.888-0.3072h266.5984c18.432 0 28.6208 7.8336 30.464 23.5008l0.3072 5.4784-0.3072 5.5296c-1.8432 15.6672-12.032 23.5008-30.464 23.5008z m82.0224 125.8496H205.568c-16.9472 0-30.72-13.0048-30.72-28.9792 0-14.4384 11.1104-26.368 25.7536-28.672l4.9664-0.3584h430.6944c16.9984 0 30.7712 13.0048 30.7712 29.0304 0 15.9744-13.7728 28.9792-30.72 28.9792zM428.6464 669.7984c-14.848 0-28.8768-6.4512-38.8096-17.6128l-3.9936-5.0176-47.4624-68.4032a53.0432 53.0432 0 0 0-20.224-17.408l-6.2464-2.56-77.6704-26.112a53.5552 53.5552 0 0 1-33.792-34.816c-4.5056-14.4896-2.9696-30.208 4.096-43.3152l3.3792-5.4784 48.384-69.12c5.2224-7.424 8.4992-16.0768 9.5744-25.088l0.4096-6.912-0.1536-85.0944c0-17.4592 8.0896-33.8944 21.76-44.1344 11.9808-8.96 26.9312-12.288 41.2672-9.2672l6.0928 1.6384 76.9024 26.2144a50.9952 50.9952 0 0 0 26.4192 1.7408l6.5024-1.7408 76.9024-26.2144a51.2 51.2 0 0 1 47.36 7.6288 54.784 54.784 0 0 1 21.4016 37.632l0.3584 6.5024-0.1536 85.0944c0 9.216 2.2016 18.2272 6.4512 26.2144l3.5328 5.7856 48.384 69.12c9.8816 14.08 12.6464 32.256 7.424 48.7424a53.8112 53.8112 0 0 1-27.904 32.512l-5.8368 2.3552-77.6704 26.112a52.4288 52.4288 0 0 0-22.272 14.6432l-4.1984 5.3248-47.4624 68.4032a52.1216 52.1216 0 0 1-42.752 22.6304z m-18.8928-114.3808l10.7008-0.6656a158.4128 158.4128 0 0 0 140.6976-177.3568l-1.8944-11.776-3.7888-1.1776-12.544-2.304c-1.4848-0.9728-10.9568-5.9904-19.968 19.968-9.1136 25.9584 15.872 35.1232 19.456 36.2496l0.512 0.1536v8.3968l-0.9216 1.8432c-3.072 3.3792-13.4656 5.2224-10.9056 11.776a36.2496 36.2496 0 0 0 5.7344 9.6768c-2.56 19.2-24.6784 42.3936-28.3136 46.08l-0.512 0.512-12.6464-7.3728-1.8432-0.8704-1.8944-0.7168a45.2608 45.2608 0 0 1-17.8176-11.4176 7.3728 7.3728 0 0 0-10.9568 0.256l-2.4576 3.4304-1.8432 3.84-5.1712 13.1072-1.536 2.7648-2.1504 2.3552-11.3152 9.9328-0.256 0.1536-0.6144-0.0512-0.256-0.256-4.8128-6.2464-1.1264-1.024a5.12 5.12 0 0 0-5.7856-0.1024l-1.1264 1.024-4.864 6.2976-1.536 1.4336-1.8432 0.9216-2.3552 0.768-2.7648 0.512a10.1888 10.1888 0 0 1-8.96-5.3248c-2.3552-4.1472-5.376-3.84-7.8336-3.072a7.68 7.68 0 0 1-4.8128 0l-2.048-1.2288-2.8672-5.4784-1.6384-4.096a21.504 21.504 0 0 1-0.8192-5.7344l0.2048-2.9184 1.6384-2.1504 9.9328-5.5808 2.56-1.024a12.1344 12.1344 0 0 1 13.9264 5.6832l1.024 2.56 4.608 5.12 5.2736 0.256 1.792-1.3824 2.1504-0.6656 2.304 0.1024 5.4272 1.1776 1.536 0.1536 1.5872-0.3584 4.5568-1.5872 1.6384-0.9216 1.28-1.3824 13.1072-19.456 1.024-2.304a6.8608 6.8608 0 0 0-1.792-6.656 26.2144 26.2144 0 0 0-23.3984-6.7072 10.24 10.24 0 0 1-7.8336-1.6896c-6.0416-4.1984-8.2432-8.6016-8.2432-8.6016a38.5536 38.5536 0 0 0-1.024-4.096c-3.584-10.8544-15.3088-15.9744-26.5216-13.9776-7.68 1.3824-14.08-3.4816-15.872-5.0176l-0.4608-0.4608-1.28-2.3552c-2.3552-6.4512 2.9184-13.9776 10.24-12.6464a32.8192 32.8192 0 0 0 8.5504 0.3584 9.8816 9.8816 0 0 0 4.7616-1.792l1.8944-1.6896 7.9872-9.472 2.9184-2.6624a18.1248 18.1248 0 0 1 14.848-2.56 23.9104 23.9104 0 0 0 12.3904-0.3584l3.8912-1.536 27.9552-15.36 1.024-3.072a13.9264 13.9264 0 0 1 6.5536-6.656l3.072-1.024 21.4016-4.6592-0.3584-4.9664a31.744 31.744 0 0 0-3.1232-9.5232l-2.7648-4.4544-1.792-3.072-1.2288-3.3792-2.9184-11.1616-0.8192-1.6384a4.608 4.608 0 0 0-3.2256-1.6896 13.6704 13.6704 0 0 1-10.0864-5.8368l-1.4336-2.7136-1.024-2.56-1.0752-2.2016-1.536-2.048-1.7408-1.8432-29.8496-25.7536-2.048-2.048a30.4128 30.4128 0 0 1-3.2256-4.864c-3.9936-7.424-11.9808-1.6896-13.9264-0.1024l-0.4096 0.3584 3.9936 47.36 0.512 5.2736a26.7776 26.7776 0 0 1-3.584 15.2064l-2.5088 3.3792-10.496 11.9808-1.8944 2.7648a14.2336 14.2336 0 0 0-1.536 6.4512c0 10.24-4.864 19.8144-12.8 25.9072l-4.3008 2.7648-19.2512 10.4448-3.1232 1.8944-3.0208 2.1504-38.0416 29.7984-2.8672 2.7648a22.016 22.016 0 0 0-5.12 10.496l-0.3584 3.9936v13.6704l-0.4096 4.4032a25.4464 25.4464 0 0 1-2.9696 8.2432l-2.56 3.6352-8.4992 10.1888-11.6736 14.336 6.656 7.2192a157.0816 157.0816 0 0 0 107.008 47.36h10.496zM828.3136 896a179.2 179.2 0 1 0 0-358.4 179.2 179.2 0 0 0 0 358.4z m0.1024-240.3328c-14.1312 0-25.5488-11.52-25.5488-25.7536a25.6 25.6 0 0 1 25.6-25.7536c14.08 0 25.5488 11.52 25.5488 25.7536a25.7024 25.7024 0 0 1-25.6 25.7536z m0 173.7728c-14.1312 0-25.6-11.52-25.6-25.7536v-110.08c0-14.2848 11.4688-25.8048 25.6-25.8048s25.6 11.5712 25.6 25.7536v110.08a25.7024 25.7024 0 0 1-25.6 25.8048z"  horiz-adv-x="1024" />

    
    <glyph glyph-name="functionalCertificate02approval" unicode="&#59104;" d="M602.9312 717.7216c0-124.0576 102.2464-224.4608 228.1984-224.4608v-505.9584c0-63.6928-58.0096-115.3024-129.536-115.3024H140.288C68.7616-128 10.752-76.3904 10.752-12.6976V602.368c0 63.6928 58.0096 115.3536 129.536 115.3536h462.6432z m-48.6912-690.4832H287.6416c-18.432 0-28.672-7.8336-30.464-23.552l-0.3072-5.4784 0.3072-5.4784c1.6384-13.9264 9.8304-21.6576 24.576-23.1936l5.888-0.3072h266.5984c18.432 0 28.6208 7.8336 30.464 23.5008l0.3072 5.4784-0.3072 5.5296c-1.8432 15.6672-12.032 23.5008-30.464 23.5008z m82.0224 125.8496H205.568c-16.9472 0-30.72-13.0048-30.72-28.9792 0-14.4384 11.1104-26.368 25.7536-28.672l4.9664-0.3584h430.6944c16.9984 0 30.7712 13.0048 30.7712 29.0304 0 15.9744-13.7728 28.9792-30.72 28.9792zM428.6464 669.7984c-14.848 0-28.8768-6.4512-38.8096-17.6128l-3.9936-5.0176-47.4624-68.4032a53.0432 53.0432 0 0 0-20.224-17.408l-6.2464-2.56-77.6704-26.112a53.5552 53.5552 0 0 1-33.792-34.816c-4.5056-14.4896-2.9696-30.208 4.096-43.3152l3.3792-5.4784 48.384-69.12c5.2224-7.424 8.4992-16.0768 9.5744-25.088l0.4096-6.912-0.1536-85.0944c0-17.4592 8.0896-33.8944 21.76-44.1344 11.9808-8.96 26.9312-12.288 41.2672-9.2672l6.0928 1.6384 76.9024 26.2144a50.9952 50.9952 0 0 0 26.4192 1.7408l6.5024-1.7408 76.9024-26.2144a51.2 51.2 0 0 1 47.36 7.6288 54.784 54.784 0 0 1 21.4016 37.632l0.3584 6.5024-0.1536 85.0944c0 9.216 2.2016 18.2272 6.4512 26.2144l3.5328 5.7856 48.384 69.12c9.8816 14.08 12.6464 32.256 7.424 48.7424a53.8112 53.8112 0 0 1-27.904 32.512l-5.8368 2.3552-77.6704 26.112a52.4288 52.4288 0 0 0-22.272 14.6432l-4.1984 5.3248-47.4624 68.4032a52.1216 52.1216 0 0 1-42.752 22.6304zM496.128 415.744a67.072 67.072 0 1 0 0-134.144 67.072 67.072 0 0 0 0 134.144z m-66.7648-24.3712a78.9504 78.9504 0 0 1 6.912-94.6176c-9.6768-1.9968-20.224-2.9696-31.5904-2.9696-41.6768 0-72.448 13.1072-91.2896 39.424a33.536 33.536 0 0 0-5.7856 14.336l-0.4096 5.12v11.264l0.3584 4.3008a27.4432 27.4432 0 0 0 22.7328 22.784l4.352 0.3584h94.72z m102.8096-12.1856l-2.048-0.5632-1.6896-1.28-44.4928-44.4416-20.0704 20.0704a6.144 6.144 0 0 1-9.8816-6.8608l1.28-1.7408 24.3712-24.3712 2.048-1.3824a6.144 6.144 0 0 1 4.5568 0l2.048 1.3824 48.7424 48.7424 1.2288 1.7408a6.144 6.144 0 0 1-1.9968 7.68l-1.9456 0.8704-2.1504 0.1536zM404.6848 537.6a60.928 60.928 0 1 0 0-121.9072 60.928 60.928 0 0 0 0 121.9072z m423.6288 358.4a179.2 179.2 0 1 0 0-358.4 179.2 179.2 0 0 0 0 358.4z m0-227.0208a27.0336 27.0336 0 0 1-26.624-23.8592l-0.256-3.4304 0.2048-3.4304a27.0336 27.0336 0 0 1 26.6752-23.8592 27.0336 27.0336 0 0 1 26.6752 23.8592l0.2048 3.4304L855.04 645.12a27.0336 27.0336 0 0 1-26.624 23.8592z m0 75.1104a27.0336 27.0336 0 0 1-26.624-23.8592l-0.256-3.4304 0.2048-3.4304a27.0336 27.0336 0 0 1 26.6752-23.8592 27.0336 27.0336 0 0 1 26.6752 23.8592l0.2048 3.4304-0.2048 3.4304a27.0336 27.0336 0 0 1-26.624 23.8592z m0 75.1104a27.0336 27.0336 0 0 1-26.624-23.8592l-0.256-3.4304 0.2048-3.4304a27.0336 27.0336 0 0 1 26.6752-23.8592 27.0336 27.0336 0 0 1 26.6752 23.8592l0.2048 3.4304-0.2048 3.4304a27.0336 27.0336 0 0 1-26.624 23.8592z"  horiz-adv-x="1024" />

    
    <glyph glyph-name="sysEmergencycall" unicode="&#59094;" d="M938.6496 896C995.5328 896 1024 867.5328 1024 810.6496v-853.2992C1024-99.5328 995.5328-128 938.6496-128H85.3504C28.4672-128 0-99.5328 0-42.6496V810.6496C0 867.5328 28.4672 896 85.3504 896h853.2992zM329.984 597.3504c-8.8064 0-17.664-3.9936-25.7024-11.8784a198.8608 198.8608 0 0 1-15.872-18.9952c-6.0416-8.192-11.776-16.5376-17.408-25.088l-0.256-0.3072c-14.08-20.6848-18.9952-57.344-10.7008-80.2304l0.3584-0.9216 0.256-1.024a468.8896 468.8896 0 0 1 19.3024-51.2c18.432-41.6768 42.24-80.896 70.656-116.5312a481.28 481.28 0 0 1 67.5328-68.9664c42.8544-35.4816 91.136-63.8976 142.9504-84.0704l4.3008-1.6384 6.144-2.1504 2.8672-0.9216 0.6656-0.2048 0.5632-0.2048c22.5792-8.7552 59.7504-5.7344 81.2032 6.656l0.4096 0.256 8.96 4.9664c7.424 4.1984 14.336 8.2944 20.48 12.0832 2.4576 1.536 4.8128 2.9696 6.912 4.352 9.472 6.144 16.0256 10.8544 19.4048 14.2848 16.384 16.4864 16.384 36.096 0.2048 52.4288-21.8624 22.016-43.52 43.6224-64.4608 64.3072-16.0768 15.9744-35.328 15.9744-51.4048 0l-10.8544-10.752-9.9328-9.9328-32.9728-32.768-10.6496 4.3008a369.92 369.92 0 0 0-65.536 34.9184 237.2096 237.2096 0 0 0-34.048 27.136 213.7088 213.7088 0 0 0-30.6688 39.0656 381.184 381.184 0 0 0-31.232 61.3376l-4.1472 10.5984 30.6176 30.5664 21.7088 21.8112c16.64 16.6912 16.5888 35.9424-0.1536 52.7872l-14.6432 14.6944-31.6416 31.6416a4785.92 4785.92 0 0 1-17.5616 17.4592c-7.936 8.1408-16.8448 12.1344-25.6512 12.1344z m215.9104-64.6144a10.752 10.752 0 0 1-12.544-9.4208v-22.016a10.7008 10.7008 0 0 1 10.6496-11.264c38.656-4.9152 69.12-35.328 74.0352-74.0352l0.0512-1.2288a10.6496 10.6496 0 0 1 10.5984-9.4208h0.6656l21.0944 0.0512 2.56 0.3072a10.8544 10.8544 0 0 1 7.4752 7.4752l0.4096 2.816a128.0512 128.0512 0 0 1-114.944 116.736z m-1.2288 107.008h-0.6656a10.6496 10.6496 0 0 1-10.6496-10.3936v-21.3504a10.6496 10.6496 0 0 1 10.9056-10.9568 192 192 0 0 0 180.736-181.0432l0.1024-1.2288a10.6496 10.6496 0 0 1 10.5984-9.4208h21.4016a10.6496 10.6496 0 0 1 10.5984 12.0832 234.7008 234.7008 0 0 1-223.6928 222.3616z"  horiz-adv-x="1024" />

    
    <glyph glyph-name="systemEnterpriseWechat" unicode="&#59095;" d="M938.6496 896C995.5328 896 1024 867.5328 1024 810.6496v-853.2992C1024-99.5328 995.5328-128 938.6496-128H85.3504C28.4672-128 0-99.5328 0-42.6496V810.6496C0 867.5328 28.4672 896 85.3504 896h853.2992z m-283.5456-696.576h-1.5872l-8.2944-0.6656c0.768-3.8912-0.768-8.96 1.536-11.264 20.2752-20.2752 31.9488-44.3904 37.376-72.0384 3.9424-17.92 22.528-29.184 40.4992-26.8288a37.7344 37.7344 0 0 1 32.3072 37.376c-0.768 15.872-9.728 31.488-26.8288 34.6112l-9.1136 2.4064c-24.0128 6.8096-45.7216 17.7152-63.6928 35.7376-0.6144 0.6144-2.048 0.768-3.7888 0.6656z m35.328 351.9488c-107.4688 114.0224-304.0256 119.0912-416.512 8.96C212.48 499.6096 189.8496 426.8032 214.7328 342.016c13.312-42.8032 39.7312-76.6464 70.4512-107.3664a21.0944 21.0944 0 0 0 5.4784-12.9024c-1.9456-19.456-4.3008-38.912-7.424-58.368-0.768-9.728 0-17.92 7.424-23.3472 7.7824-6.2464 15.9744-5.4784 24.9344-0.768l70.4 34.6112c4.7104 1.536 10.5472 2.3552 15.2064 1.536a325.632 325.632 0 0 1 93.0304-8.9088c24.4224 0.8704 48.64 4.9152 71.9872 12.0832a71.168 71.168 0 0 0 29.952 124.928c20.992 3.4816 37.7856 12.032 51.4048 25.6512a81.2032 81.2032 0 0 0 0 19.456 73.8816 73.8816 0 0 0 70.4512 65.4336h1.536c10.9568 0 21.4016-2.3552 30.72-6.656-0.768 55.6544-21.76 103.5264-59.904 144.0768z m140.0832-280.6272a37.0688 37.0688 0 0 1-40.448-29.952 125.8496 125.8496 0 0 0-34.6624-68.096c-2.3552-2.304-3.1232-9.728-1.536-12.8512 3.84-5.8368 9.728-2.3552 13.6192 1.536l6.2464 5.888a125.6448 125.6448 0 0 0 60.672 28.7744c18.6368 3.4816 29.952 18.688 29.952 37.3248a37.5808 37.5808 0 0 1-33.8432 37.376z m-145.5616 35.0208c-3.8912 0-9.728 0.768-12.0832-1.536a128.8192 128.8192 0 0 0-69.632-35.4304 35.6864 35.6864 0 0 1-28.416-34.6624 39.0656 39.0656 0 0 1 32.6656-37.7344 34.7136 34.7136 0 0 1 40.448 27.648c5.4784 26.8288 15.9744 50.176 35.4304 69.632 2.3552 2.3552 0.768 8.192 1.536 12.0832z m34.6112 73.216a39.2192 39.2192 0 0 1-37.376-34.6624 36.3008 36.3008 0 0 1 27.648-39.7312c26.88-5.7856 50.9952-16.2816 70.4512-36.5568 0.9728-0.9216 2.4576-1.28 4.1984-1.28l8.704 0.512c-0.8192 3.8912 0.7168 10.496-1.5872 12.8a129.024 129.024 0 0 0-35.4304 69.7344 36.7104 36.7104 0 0 1-36.608 29.184z"  horiz-adv-x="1024" />

    
    </font>
</defs>
</svg>
